<mxfile host="app.diagrams.net" modified="2024-03-10T06:22:15.482Z" agent="Mozilla/5.0 (Windows NT 10.0; Win64; x64) AppleWebKit/537.36 (KHTML, like Gecko) Chrome/122.0.0.0 Safari/537.36" etag="Omx4gnc5wmJz-e9gIhJy" version="24.0.4" type="github">
  <diagram id="R2lEEEUBdFMjLlhIrx00" name="Page-1">
    <mxGraphModel dx="1461" dy="326" grid="1" gridSize="10" guides="1" tooltips="1" connect="1" arrows="1" fold="1" page="1" pageScale="1" pageWidth="850" pageHeight="1100" math="0" shadow="0" extFonts="Permanent Marker^https://fonts.googleapis.com/css?family=Permanent+Marker">
      <root>
        <mxCell id="0" />
        <mxCell id="1" parent="0" />
        <mxCell id="C-vyLk0tnHw3VtMMgP7b-2" value="Pokemon" style="shape=table;startSize=30;container=1;collapsible=1;childLayout=tableLayout;fixedRows=1;rowLines=0;fontStyle=1;align=center;resizeLast=1;" parent="1" vertex="1">
          <mxGeometry x="450" y="120" width="250" height="210" as="geometry" />
        </mxCell>
        <mxCell id="C-vyLk0tnHw3VtMMgP7b-3" value="" style="shape=partialRectangle;collapsible=0;dropTarget=0;pointerEvents=0;fillColor=none;points=[[0,0.5],[1,0.5]];portConstraint=eastwest;top=0;left=0;right=0;bottom=1;" parent="C-vyLk0tnHw3VtMMgP7b-2" vertex="1">
          <mxGeometry y="30" width="250" height="30" as="geometry" />
        </mxCell>
        <mxCell id="C-vyLk0tnHw3VtMMgP7b-4" value="PK" style="shape=partialRectangle;overflow=hidden;connectable=0;fillColor=none;top=0;left=0;bottom=0;right=0;fontStyle=1;" parent="C-vyLk0tnHw3VtMMgP7b-3" vertex="1">
          <mxGeometry width="30" height="30" as="geometry">
            <mxRectangle width="30" height="30" as="alternateBounds" />
          </mxGeometry>
        </mxCell>
        <mxCell id="C-vyLk0tnHw3VtMMgP7b-5" value="pokemon_id -&gt; uuid" style="shape=partialRectangle;overflow=hidden;connectable=0;fillColor=none;top=0;left=0;bottom=0;right=0;align=left;spacingLeft=6;fontStyle=5;" parent="C-vyLk0tnHw3VtMMgP7b-3" vertex="1">
          <mxGeometry x="30" width="220" height="30" as="geometry">
            <mxRectangle width="220" height="30" as="alternateBounds" />
          </mxGeometry>
        </mxCell>
        <mxCell id="C-vyLk0tnHw3VtMMgP7b-6" value="" style="shape=partialRectangle;collapsible=0;dropTarget=0;pointerEvents=0;fillColor=none;points=[[0,0.5],[1,0.5]];portConstraint=eastwest;top=0;left=0;right=0;bottom=0;" parent="C-vyLk0tnHw3VtMMgP7b-2" vertex="1">
          <mxGeometry y="60" width="250" height="30" as="geometry" />
        </mxCell>
        <mxCell id="C-vyLk0tnHw3VtMMgP7b-7" value="FK1" style="shape=partialRectangle;overflow=hidden;connectable=0;fillColor=none;top=0;left=0;bottom=0;right=0;" parent="C-vyLk0tnHw3VtMMgP7b-6" vertex="1">
          <mxGeometry width="30" height="30" as="geometry">
            <mxRectangle width="30" height="30" as="alternateBounds" />
          </mxGeometry>
        </mxCell>
        <mxCell id="C-vyLk0tnHw3VtMMgP7b-8" value="p_name -&gt; texr" style="shape=partialRectangle;overflow=hidden;connectable=0;fillColor=none;top=0;left=0;bottom=0;right=0;align=left;spacingLeft=6;" parent="C-vyLk0tnHw3VtMMgP7b-6" vertex="1">
          <mxGeometry x="30" width="220" height="30" as="geometry">
            <mxRectangle width="220" height="30" as="alternateBounds" />
          </mxGeometry>
        </mxCell>
        <mxCell id="C-vyLk0tnHw3VtMMgP7b-9" value="" style="shape=partialRectangle;collapsible=0;dropTarget=0;pointerEvents=0;fillColor=none;points=[[0,0.5],[1,0.5]];portConstraint=eastwest;top=0;left=0;right=0;bottom=0;" parent="C-vyLk0tnHw3VtMMgP7b-2" vertex="1">
          <mxGeometry y="90" width="250" height="30" as="geometry" />
        </mxCell>
        <mxCell id="C-vyLk0tnHw3VtMMgP7b-10" value="" style="shape=partialRectangle;overflow=hidden;connectable=0;fillColor=none;top=0;left=0;bottom=0;right=0;" parent="C-vyLk0tnHw3VtMMgP7b-9" vertex="1">
          <mxGeometry width="30" height="30" as="geometry">
            <mxRectangle width="30" height="30" as="alternateBounds" />
          </mxGeometry>
        </mxCell>
        <mxCell id="C-vyLk0tnHw3VtMMgP7b-11" value="p_category -&gt; varchar" style="shape=partialRectangle;overflow=hidden;connectable=0;fillColor=none;top=0;left=0;bottom=0;right=0;align=left;spacingLeft=6;" parent="C-vyLk0tnHw3VtMMgP7b-9" vertex="1">
          <mxGeometry x="30" width="220" height="30" as="geometry">
            <mxRectangle width="220" height="30" as="alternateBounds" />
          </mxGeometry>
        </mxCell>
        <mxCell id="fy1e1G6ieAAzmmm-jk4H-6" style="shape=partialRectangle;collapsible=0;dropTarget=0;pointerEvents=0;fillColor=none;points=[[0,0.5],[1,0.5]];portConstraint=eastwest;top=0;left=0;right=0;bottom=0;" vertex="1" parent="C-vyLk0tnHw3VtMMgP7b-2">
          <mxGeometry y="120" width="250" height="30" as="geometry" />
        </mxCell>
        <mxCell id="fy1e1G6ieAAzmmm-jk4H-7" style="shape=partialRectangle;overflow=hidden;connectable=0;fillColor=none;top=0;left=0;bottom=0;right=0;" vertex="1" parent="fy1e1G6ieAAzmmm-jk4H-6">
          <mxGeometry width="30" height="30" as="geometry">
            <mxRectangle width="30" height="30" as="alternateBounds" />
          </mxGeometry>
        </mxCell>
        <mxCell id="fy1e1G6ieAAzmmm-jk4H-8" value="p_description -&gt; text" style="shape=partialRectangle;overflow=hidden;connectable=0;fillColor=none;top=0;left=0;bottom=0;right=0;align=left;spacingLeft=6;" vertex="1" parent="fy1e1G6ieAAzmmm-jk4H-6">
          <mxGeometry x="30" width="220" height="30" as="geometry">
            <mxRectangle width="220" height="30" as="alternateBounds" />
          </mxGeometry>
        </mxCell>
        <mxCell id="fy1e1G6ieAAzmmm-jk4H-12" style="shape=partialRectangle;collapsible=0;dropTarget=0;pointerEvents=0;fillColor=none;points=[[0,0.5],[1,0.5]];portConstraint=eastwest;top=0;left=0;right=0;bottom=0;" vertex="1" parent="C-vyLk0tnHw3VtMMgP7b-2">
          <mxGeometry y="150" width="250" height="30" as="geometry" />
        </mxCell>
        <mxCell id="fy1e1G6ieAAzmmm-jk4H-13" style="shape=partialRectangle;overflow=hidden;connectable=0;fillColor=none;top=0;left=0;bottom=0;right=0;" vertex="1" parent="fy1e1G6ieAAzmmm-jk4H-12">
          <mxGeometry width="30" height="30" as="geometry">
            <mxRectangle width="30" height="30" as="alternateBounds" />
          </mxGeometry>
        </mxCell>
        <mxCell id="fy1e1G6ieAAzmmm-jk4H-14" value="p_image -&gt;" style="shape=partialRectangle;overflow=hidden;connectable=0;fillColor=none;top=0;left=0;bottom=0;right=0;align=left;spacingLeft=6;" vertex="1" parent="fy1e1G6ieAAzmmm-jk4H-12">
          <mxGeometry x="30" width="220" height="30" as="geometry">
            <mxRectangle width="220" height="30" as="alternateBounds" />
          </mxGeometry>
        </mxCell>
        <mxCell id="fy1e1G6ieAAzmmm-jk4H-15" style="shape=partialRectangle;collapsible=0;dropTarget=0;pointerEvents=0;fillColor=none;points=[[0,0.5],[1,0.5]];portConstraint=eastwest;top=0;left=0;right=0;bottom=0;" vertex="1" parent="C-vyLk0tnHw3VtMMgP7b-2">
          <mxGeometry y="180" width="250" height="30" as="geometry" />
        </mxCell>
        <mxCell id="fy1e1G6ieAAzmmm-jk4H-16" style="shape=partialRectangle;overflow=hidden;connectable=0;fillColor=none;top=0;left=0;bottom=0;right=0;" vertex="1" parent="fy1e1G6ieAAzmmm-jk4H-15">
          <mxGeometry width="30" height="30" as="geometry">
            <mxRectangle width="30" height="30" as="alternateBounds" />
          </mxGeometry>
        </mxCell>
        <mxCell id="fy1e1G6ieAAzmmm-jk4H-17" value="p_review" style="shape=partialRectangle;overflow=hidden;connectable=0;fillColor=none;top=0;left=0;bottom=0;right=0;align=left;spacingLeft=6;" vertex="1" parent="fy1e1G6ieAAzmmm-jk4H-15">
          <mxGeometry x="30" width="220" height="30" as="geometry">
            <mxRectangle width="220" height="30" as="alternateBounds" />
          </mxGeometry>
        </mxCell>
        <mxCell id="C-vyLk0tnHw3VtMMgP7b-13" value="Shipments" style="shape=table;startSize=30;container=1;collapsible=1;childLayout=tableLayout;fixedRows=1;rowLines=0;fontStyle=1;align=center;resizeLast=1;" parent="1" vertex="1">
          <mxGeometry x="440" y="470" width="250" height="130" as="geometry" />
        </mxCell>
        <mxCell id="C-vyLk0tnHw3VtMMgP7b-14" value="" style="shape=partialRectangle;collapsible=0;dropTarget=0;pointerEvents=0;fillColor=none;points=[[0,0.5],[1,0.5]];portConstraint=eastwest;top=0;left=0;right=0;bottom=1;" parent="C-vyLk0tnHw3VtMMgP7b-13" vertex="1">
          <mxGeometry y="30" width="250" height="30" as="geometry" />
        </mxCell>
        <mxCell id="C-vyLk0tnHw3VtMMgP7b-15" value="PK" style="shape=partialRectangle;overflow=hidden;connectable=0;fillColor=none;top=0;left=0;bottom=0;right=0;fontStyle=1;" parent="C-vyLk0tnHw3VtMMgP7b-14" vertex="1">
          <mxGeometry width="30" height="30" as="geometry">
            <mxRectangle width="30" height="30" as="alternateBounds" />
          </mxGeometry>
        </mxCell>
        <mxCell id="C-vyLk0tnHw3VtMMgP7b-16" value="shipment_idÂ int NOT NULL " style="shape=partialRectangle;overflow=hidden;connectable=0;fillColor=none;top=0;left=0;bottom=0;right=0;align=left;spacingLeft=6;fontStyle=5;" parent="C-vyLk0tnHw3VtMMgP7b-14" vertex="1">
          <mxGeometry x="30" width="220" height="30" as="geometry">
            <mxRectangle width="220" height="30" as="alternateBounds" />
          </mxGeometry>
        </mxCell>
        <mxCell id="C-vyLk0tnHw3VtMMgP7b-17" value="" style="shape=partialRectangle;collapsible=0;dropTarget=0;pointerEvents=0;fillColor=none;points=[[0,0.5],[1,0.5]];portConstraint=eastwest;top=0;left=0;right=0;bottom=0;" parent="C-vyLk0tnHw3VtMMgP7b-13" vertex="1">
          <mxGeometry y="60" width="250" height="30" as="geometry" />
        </mxCell>
        <mxCell id="C-vyLk0tnHw3VtMMgP7b-18" value="FK1" style="shape=partialRectangle;overflow=hidden;connectable=0;fillColor=none;top=0;left=0;bottom=0;right=0;" parent="C-vyLk0tnHw3VtMMgP7b-17" vertex="1">
          <mxGeometry width="30" height="30" as="geometry">
            <mxRectangle width="30" height="30" as="alternateBounds" />
          </mxGeometry>
        </mxCell>
        <mxCell id="C-vyLk0tnHw3VtMMgP7b-19" value="order_id int NOT NULL" style="shape=partialRectangle;overflow=hidden;connectable=0;fillColor=none;top=0;left=0;bottom=0;right=0;align=left;spacingLeft=6;" parent="C-vyLk0tnHw3VtMMgP7b-17" vertex="1">
          <mxGeometry x="30" width="220" height="30" as="geometry">
            <mxRectangle width="220" height="30" as="alternateBounds" />
          </mxGeometry>
        </mxCell>
        <mxCell id="C-vyLk0tnHw3VtMMgP7b-20" value="" style="shape=partialRectangle;collapsible=0;dropTarget=0;pointerEvents=0;fillColor=none;points=[[0,0.5],[1,0.5]];portConstraint=eastwest;top=0;left=0;right=0;bottom=0;" parent="C-vyLk0tnHw3VtMMgP7b-13" vertex="1">
          <mxGeometry y="90" width="250" height="30" as="geometry" />
        </mxCell>
        <mxCell id="C-vyLk0tnHw3VtMMgP7b-21" value="" style="shape=partialRectangle;overflow=hidden;connectable=0;fillColor=none;top=0;left=0;bottom=0;right=0;" parent="C-vyLk0tnHw3VtMMgP7b-20" vertex="1">
          <mxGeometry width="30" height="30" as="geometry">
            <mxRectangle width="30" height="30" as="alternateBounds" />
          </mxGeometry>
        </mxCell>
        <mxCell id="C-vyLk0tnHw3VtMMgP7b-22" value="shipment_date date NOT NULL" style="shape=partialRectangle;overflow=hidden;connectable=0;fillColor=none;top=0;left=0;bottom=0;right=0;align=left;spacingLeft=6;" parent="C-vyLk0tnHw3VtMMgP7b-20" vertex="1">
          <mxGeometry x="30" width="220" height="30" as="geometry">
            <mxRectangle width="220" height="30" as="alternateBounds" />
          </mxGeometry>
        </mxCell>
        <mxCell id="C-vyLk0tnHw3VtMMgP7b-23" value="User" style="shape=table;startSize=30;container=1;collapsible=1;childLayout=tableLayout;fixedRows=1;rowLines=0;fontStyle=1;align=center;resizeLast=1;" parent="1" vertex="1">
          <mxGeometry x="120" y="120" width="250" height="100" as="geometry" />
        </mxCell>
        <mxCell id="C-vyLk0tnHw3VtMMgP7b-24" value="" style="shape=partialRectangle;collapsible=0;dropTarget=0;pointerEvents=0;fillColor=none;points=[[0,0.5],[1,0.5]];portConstraint=eastwest;top=0;left=0;right=0;bottom=1;" parent="C-vyLk0tnHw3VtMMgP7b-23" vertex="1">
          <mxGeometry y="30" width="250" height="30" as="geometry" />
        </mxCell>
        <mxCell id="C-vyLk0tnHw3VtMMgP7b-25" value="PK" style="shape=partialRectangle;overflow=hidden;connectable=0;fillColor=none;top=0;left=0;bottom=0;right=0;fontStyle=1;" parent="C-vyLk0tnHw3VtMMgP7b-24" vertex="1">
          <mxGeometry width="30" height="30" as="geometry">
            <mxRectangle width="30" height="30" as="alternateBounds" />
          </mxGeometry>
        </mxCell>
        <mxCell id="C-vyLk0tnHw3VtMMgP7b-26" value="customer_id int NOT NULL " style="shape=partialRectangle;overflow=hidden;connectable=0;fillColor=none;top=0;left=0;bottom=0;right=0;align=left;spacingLeft=6;fontStyle=5;" parent="C-vyLk0tnHw3VtMMgP7b-24" vertex="1">
          <mxGeometry x="30" width="220" height="30" as="geometry">
            <mxRectangle width="220" height="30" as="alternateBounds" />
          </mxGeometry>
        </mxCell>
        <mxCell id="C-vyLk0tnHw3VtMMgP7b-27" value="" style="shape=partialRectangle;collapsible=0;dropTarget=0;pointerEvents=0;fillColor=none;points=[[0,0.5],[1,0.5]];portConstraint=eastwest;top=0;left=0;right=0;bottom=0;" parent="C-vyLk0tnHw3VtMMgP7b-23" vertex="1">
          <mxGeometry y="60" width="250" height="30" as="geometry" />
        </mxCell>
        <mxCell id="C-vyLk0tnHw3VtMMgP7b-28" value="" style="shape=partialRectangle;overflow=hidden;connectable=0;fillColor=none;top=0;left=0;bottom=0;right=0;" parent="C-vyLk0tnHw3VtMMgP7b-27" vertex="1">
          <mxGeometry width="30" height="30" as="geometry">
            <mxRectangle width="30" height="30" as="alternateBounds" />
          </mxGeometry>
        </mxCell>
        <mxCell id="C-vyLk0tnHw3VtMMgP7b-29" value="customer_name char(50) NOT NULL" style="shape=partialRectangle;overflow=hidden;connectable=0;fillColor=none;top=0;left=0;bottom=0;right=0;align=left;spacingLeft=6;" parent="C-vyLk0tnHw3VtMMgP7b-27" vertex="1">
          <mxGeometry x="30" width="220" height="30" as="geometry">
            <mxRectangle width="220" height="30" as="alternateBounds" />
          </mxGeometry>
        </mxCell>
        <mxCell id="fy1e1G6ieAAzmmm-jk4H-1" value="&lt;span data-metadata=&quot;&lt;!--(figmeta)eyJmaWxlS2V5IjoiSkxZWlFuZ2h2UW9NOXg5UmY1enlKUyIsInBhc3RlSUQiOjYyMzUxODIyOSwiZGF0YVR5cGUiOiJzY2VuZSJ9Cg==(/figmeta)--&gt;&quot;&gt;&lt;/span&gt;&lt;span data-buffer=&quot;&lt;!--(figma)ZmlnLWtpd2kwAAAAPUYAALW9e5xkSVXgH3Ezsx5d/Zj3i5nhDYqI82J4iEg+blVld74mb2b1zKiTZFXe6ko6K7PMm1XTxbouIiIigiIiIiKyiDi6iIiIiDgiIiIiIiIiIiKyLMuyLsu6LMu6v++JiPvI6h7Wf37z+UxHxIkTJ06cOHHixInIWw969TCK+ufCzuFeqNQ1p5vVRi/oFNsdxX+NZsXvldeLjTU/oKi7gd/OlD2D7Tcq5HNBda1RrJHLB517aj6Zgsn0Al9oLRhcQ7kXnKm2em2/1ixKy8VGs1NdvacXrDe7tUqv21prFyvSfslle5VmQ8rLcbntr7b9YB3QsaDsN/we4NZ6766u374H4EoW2PZbNQEer1RXV0lPlGtVv9Hpldr0Xi4GwtvJDG+nm9024/CFs1NBp+0X67aG8mWubEd8ebXR8dvFcqe6wSBrVRizoqHuirZfbjYafpnBZpiJObzy0tUxr1cZfuilV22U234dfos1al0bMK4uXhhGTMDd5JU00cWtLSYSEBxWes2GIaRM4Wy72hGmdGMyCFs7/SgEDbrFjhklSPXmhsnqs8PxYDg+194fCU6j2bjXbzepUM2KqRcKVlMeT6UPSFWa5a5wSFaXi42NYkDOW2s3uy0yudV2sS54+VKzWfOLjV6zhdA61WYDYGGD4TTb5BZExqSLtaohu+TXatVWINllBt5BrkanjrX9tW6t2O61mrV71gyRFbpqVPyKCCjBO97x7xaWTjAxZQGcDO6pl5qin6eqDTprGCgzWi2fEVFdHqwXW37vbLWz3nNtr3DyNgxeWZa1UKo1y2coXXW2Wlkzen01tOoy0mvqfqVaJHPtenVtvcb/Un1dAAE72Otdtoew27WidHrD2WKwXu116JnSwzaK7WqxZPi/seMyN5lMr4w8KN0co7hV9XCGZ9bKI4pBUA2Y0B6Um12pe+TF+unXjDJR+aiEkHDTphLgo+vNStf0+hiLv0YFpcfaUrt5lsLjgp3+Xnh2ONvphBdmVhluDu7qFts+tQo+3bxpxFFvmqXidehMZobVTTGXFCvNsyKa/KWmsNAqtou1GmaC1VHvtZ1EF+bBNX9VoIt+Y61XKSKsoul8Scost64UlqWwWjVUj5l8s1bxZVZXOiw8/96mGebxVtuv+KsoYKXXajfLfiCqfIIZ8mtSfzJW9V5QdTyeSkD1bq1TbRngZfVio8uCrTZaZiIuX/fvLlpdvaK87m+0TfbKFs0c+Komw7ZZ0Sfh7JpWrSvdX1tsI/d4mNfZUiyL64NuvQ4vvdPdBvNsCNxg1PVhQcv3y+u9UrfEJAO40WgDlg1r1mwXjZW6qTQKx4M6a1rYQYN6nXVmYk0sK7a/XTf2XFeK7TO+kPbcIEV1c7JQWYclzCXFfLlZayalglF/02YhwNKYnFnatKg0WTqUl2yTuLgsiojykj0WNFc7PUOD0sp6sY1au5Kx437bt+v3hH93GTnZkZ9cN7N9Kih2uomJucz0QubyWhdRNYNqR7q4otUfjp32LgVN9BugQqMqVaaF3oRVIDoBSWrkgW0jKyA0VWwRsFwCA8kpfb5at2IuYF9PV8ksbLCMxJwuVnfZcoOt/ii00mfPbPudshH8alXGqdFX01vH6m3O394OtxzH+SqGqc2OWWQBUakq7WYrLerVJmaSmWQHKdW6wqBXKpbPzINysn7LZjdYaKJRVZQDsOq2sNCkutY8azKw0LE8BGhErVcutkQz82mJBdUumx2kIEQr4dZk2p8NJ2PaxPsEPTO/yJW8ZrjVM36qbV4t7MvG05kOdynFbaDdW/fdzOvG/u5mOO2Oh7MIuu2iDFW1qnf7tYCMhmv2UsH0ypNxNJumM7zIzANXUm+GpOtF2To9+HBizwVldn0y+VUoVnq2RcEVDPZCMJtOzofF0fDcmAYJMcWGwsSS0Vhel/Uscrm/h0bG42G4RjV0Yi89u6BFLjKInC36d3WrNbZnDB3AvNMpMWHWMSkgPpQPA5qAFrK7zmK6r/RupbyUKd9GeTlTvp3ysUz5DsormfKTKR/PlO+kfKJcbZezvZ+0oz09GYpk6vgbbaCq5G/4MgIdD9wrTSajsD9u7oWxguS7DbtSESPNZJMkr4NuCdts8t7dZgEbfTXCX59Mh8+djGf9Ec2dZczMLbpspOCd7rK9r1YNh2nrjXA6G7L0BNZsUZVpWmp2Os06Oa8+2Y/C8v40mkyRD9tCEdtHhSq3mwErrdomr/17fFl6qB4lD+/PdNUqMhRsYRkVp5zH0pMUSMrVGrmFulhUabLIFONTk1tK5s8UlzdY7JNpfTidCgPJKjKzTqpNBguEZWRH64gKe5V+tGPtiVdmFwakUgXXxubY9ZBvNdYAqdMtX1IdbEjitSriIef8C3uT6ezoGsrhDWHS2fzcQlExAF/I9K9jQLJkvVr/cLI/W5sOB5ZI3i6rjMRTBj27ynJpm1Z/NgunY6rAqrbMCsFGG1utzXzuzybtMBo+F9KJiAw7RjIJHzrJedKsM90fbzn18yrVQPwgoalwudlNyehgdjgKg9CNnalrB01nHzscAUh0Ge2yusJpBFejUZaNJdfx6y02WOPn52MyCHMWJpK8aL8hq+PdAsPR3zpvpzEZ0zoG+l6kazjQbJS4rSZvsY1e091F0rUi9UoomZgY8jnToDzZh6Gpa7fwUO0Qu5ucXLHbkZ0rnyFVMKRO70ez4fYhxYek0iqW8T03fHsoydlyye+ctY4BUoJOYGfRGFyAnEqC6r1+r9PEyhgBzQFQOia5Wm/h3lOSGnCsNFqTaCiTy34CyDGuiiXE3rUHIYN2diq2mb2GA1KxBVi51FZnReSmD+yY2tExaFDGLFm6tZO8HE8dpsD6XXKYpqy7bTNxJTZk0ly51jQeax6Pvhd75ZQL3Rb+rN8zx4peu9voVM1BaoFVVqmKd2MUYDHbrIcDLzhLVfid9jPsXMa5A5tgulTFVVjqCT32K8q63uRkj79K3rN5W5Gj1br4ZeTztgIPQ9AKtmTc+QWwcJ2Nt7zohr1UwcckXabujH9P3OwYxY2mPZGtkLeDWzcTfDwpswwpn7BdxNp00hY5Q25I61OdaX9s59mO8AZ2Yc4OnR7bBvuxCAg0xfJm3k0TvUrwgNSzx5nVdjM5PuQyoHj7yGdgdqMoZCDJTrHQ6gbrFuaILaaQmNZSCrKkllNAQumYHMMtzFFaSSExpeMpyFJCTDEgoXTSMsokghQTOzUHjOldNge1JC+fgyVUrzA9OagjemUWFtO8Kgu0JK/OghKK12DzqmW01szPtTiURGCKDUyhWafXcXZo4mKmkOv9fsSytjN+kiBJuVuqlqlQQjou6GojW/TEXlk3nRay7pKqvODNQQq27RxswZr6pLwYtNp2n1haQz1Zdwlg2aEmgGM2ZxYIK9WujpV5YOes2JTjR4DrnJsAnwi2ppPRqDKcWvMC026NfYNdAQkbq23bYptmYg3CAZZtFlLv391ig7SGtgwF8bRMSa912Zq0FxFMojPyi0qPJrhLJuuVJyP8EZ2fqmWlz/GPt8k/uT7/5K3LQuMLlPQh/3htQGCngPv5J7fDP3lDKZhN9miwJXn1bKX3nOkGwav3Z9PhBaUXdm+5hbLeveVWEm/3lttIcru3CjC/e6sAC7u3CnCh1Z9ipqvjQUg779z+cKDuyxBdUZ49Q1B50B/th7TR++Y8caPyVpFSo78bKp3b7u8OR4fg60g2cDIeRGbR1nS4N6OUE9yN/nTYp8n+bjgdbq0Oz+1PES1btjs3K9SO+SSjCTeYWCh5081802Cvv4VSz7Ul/oAXIUbMlDWBDXfUvASBVZlcGWCWAoaUiILJ42ShzmZ+s63L/b0IZU6bsP7MmVOT9OKC1/I5/wnrOQC9pCR+O/FTyRYAMdg1sgsZ+q1Y7lm28Ov5F/cel4qM4ScwQmZyEqwqOm2Wmg7CXUgNt86Gw3M7szkkwnkypASlyoFguDWHktLhxGE2itWwPzMT9Y+6xfGSKlW+rWVQ3Gi8cisQeE5GRWoGSlpwsdAFoj/iJy8225UG6VJxtS31y5WGMWrHGt26DG0Fb17igcfZd0U0Jyo2PSluPukpTsOSXlYsmpPF5WWbXsHRStIrA1u+qr1hgipXywInvSY4a2Lf15aDs5JexyQL/Ppy2QQibwisy/awdQKCpDc65+imZrsh/N0sQiF9OPukyO8RlY45QD9ytVaUcTyqvtYWN+HRATpL+hiOKtL/Y1fxrEkft27Tx6/bfr+pY8vffJdNn9Cy6bfI8Yv0ibXVkpS/tdky6ZPaHZN+W8u2v6V1piFyurWGGSK9jVT4vL3dqUn5DlIpP7lYam+Q3lksbUj5KaTC91M3LJ2nbcAQ6dNLtbMyP99OKnjPIBW87yieWZdxPLN82hwrv7O8ahbUs8otUy6Wu23BK+EySLmMkZS0smrp+0QGhZ9V0ttI10hvJ12nW+mvSir0T6/b8dDbmvBTW2+eFr3BPTZ+TqOKQ0LaPN16ylNJW6dbTxU6d51uPe0W0vbp1i13kAa103Vp1yHmLPhddkeZlw1xkkjPkgofd9fP1AV+T6Nm3Lt7G90zHdLvYiMRvr6bNCD9ng0ETnpfK+gIvEcq8Ge3z7Sl3G+31iXdbHdLMu9bAd416aBj+Qg7DXPw2WaaZP7ObRBnI93ZsPXDDTvu52ycMfpyfqPdaZOOSG8j3Q0CLLhSY1IpT0hvJ90jvYP0e0mfTDolvZM0In0K6YxU5LRP+jTSgyDA9it1P6nQu0Aq9A5Jhd5zSYXevyEVet9HKvT+LanQ+35SoffvSIXe83QQ3CYEf0CXNwyHz5eMkPxByQjNF0hGiP6QZITqCyUjZH9YMkL3RZIRwj8iGaH8YjKG1R+VjFB+iWSE8o9JRii/VDJC+WWSEco/Lhmh/BOSEcovl4xQ/knJCOVXkDE8/5RkhPIrJSOUf1oyQvlVkhHKPyMZofxqyQjln5WMUH6NZITyz0lGKL+WzO1C+eclI5RfJxmh/AuSEcqvl4xQ/veSEcpvkIxQ/kXJCOU3SkYo/5JkhPKbyNwhlH9ZMkL5AckI5V+RjFD+VckI5f8gGaH8ZskI5V+TjFB+i2SE8q9LRii/lcyThfJvSEYov00yQvk3JSOU3y4ZofxbkhHK75CMUP5tyQjld0pGKP+OZITyu8jcKZR/VzJC+d2SEcq/Jxmh/KBkhPLvS0Yov0cyQvkPJCOU3ysZofyHkhHK7yPzFKH8R5IRyu+XjFD+Y8kI5Q9IRij/iWSE8gclI5T/VDJC+UOSEcp/Jhmh/GEyTxXKfy4ZofwRyQjlv5CMUP6oZITyX0pGKH9MMkL5ryQjlD8uGaH815IRyp8gY0zU30hGKH9SMkL5byUjlD8lGaH8d5IRyp+WjFD+e8kI5c9IRij/g2SE8mf10aATLtqM7VrdoXTsqnnim9b7e3viLGlvezrZFfduNuFfrzSabCqtNw9nYaRy2ka7lJfjunNHymPx7PDjBv1Z3+AuqtzGcBBOlOfFONHt3elIkFr9aBYGk/3pFiS8aIp3h4Mi7uB0qyGRGToExBm7LJ5rcfAcgiBKL82EcXzKaKc/mNwfkfV2cFsIIezgY+K1DsJZfzgilw8ZbySOCN7rASGGkFAX+YVZuGtio7Zq8WC4yTkXNpY5Q4pcbLfu0l55x/7/7XIL72yKMMgvb06F5pieKR0zzCjvGjNJlym9JYJQz1beRLzZmTj7uYNhNNxEcFrlSdxN00lViPD6I7WtF6A9jrYn0121oxaHZsZepNWSyXV2cNXHwjqg5f4YIAeYqlQJ5DILwb3E+2VqF9XllLOXKleoYxayM9kfDcrCX70/BgA/10wnnIRoDJsrkTQhc3zbyNZguil9qVYn9mSkq6YK26xOhruT5wzL9NAi2o2MF/WpA6NIL9bqCiLT54ZjTkvS89nhYMbA1JVz0HXryS6qq7akJ5xl9UBeXS2OcJ25qqCgyiucDw/VWOltoLXhOG7E7AqkMjwXwl2Okwol6z4/V+Wl4PzkAlcXlCA+tOP0cv0Lw6jTP0fHWrINkRq6Hq8uEyC3nV+5tdOXI0U4jcDQScl0VK3IkL1I8s2DcEqcNuz0mV/1Tk/nRiZ4a2J5m8w6t0sjuI/YRHTh3Ohwbydi99ALg+SGKGLv0IubHDHPf+/+RBbvG7W+zJLZgAFQ4Hhpm8Ek0nmF1svb/dFokzDdKhWRGutjOyjilM7OlyYXoPIarVcokXtdTh+fJRFfTsBTd0IsqBMOHg4S+Z4cTc7J7YBB6UzK8dib29tROMP6qGV9ancYhwSTdpfvUoK+7f21Wl8x4Gh2EA5qhonX5/SVFQtI5XzcDtNJS89Jy0ulxRKekxaLaU5ahW14yQpn4WJZLLqRQmNOAksOnpHA8r9CAseOjnZlYAdXM/wz2uPrGR6Ul98knDqI1IADt7Wx7nSe24nxODQUiDImhFkEaaMoZZooBLYkzueG0QbHPlAIBti2Z1g6i6pQcuJU3hJ2z55EkfL9ZlGykKTuHjI5ySSjz0upGG1BitIiZnIyDWuZ20ms4vZwGs0SuUhfMJQtL6zJ5NHx1mR3t88QSnbHSUMRm8quIAbNGGQCjRbQ/8XE+4MDZ48XLrY9iwZkDEsQztRn8oReE3Vh85oSgUGCGgnG3cle6fQHs3DgrsNK2CGkaMD1/pRpc7LPMmpDPEbPpKUUGuHs/gnoboSIa5f5eC6xJv5JxnmxpZDNnAsepKRFFSJ1n9bB4e7mZOTIR6ZAv+zxNh8TiYSAR+BGto4A3sNVhMX2w2TGZNFT4yd4HroBhT1gOJwEB5DeWjiWDQ8Jub4mWcp6PwpX0YI1cUQYx+HYhGc0zsNwe7s5Hh22EfpBf2SwcxWr+dXd3f2ZjM7sR5auN0+XgrNnXjGKwll1AJeMH12bDsF5u9baVfiADiHQl6IoNHbY5KsD3FTXvh1ug3Le1sbEWVqmEkRvUSQro+8LRNDfQVvW0ozBTfb3qgM8XJUzM0T+3awhK2kKD2q8BNk+GBLF92i1EBcDQ/19mkBolpQXr+n57gJH/aGq4w4fon7DdYoi/D8wmohAhF0d/L8wAwZQeSgknId9uhs8VH1nJ9z9BtwEGCOcF3CcDswkD/4H9NwkpXitqbhD3sJMChsJBn5vyq0Rtzdj63DijJgtjfHrACqLH1Hvj/fZEw+DcMS6DFnKKj+MSpPpwLk0l0AoRPubEtTcZFeSzt0YFlLe5hX0IyjoXJ1PhajpTMowKWM0eTumD8FzgCmTRSSzDP2QCC22zFvexqU+Y1U3MpWICLf6wI5/vY9LTqBVRNzqJ8s54jzI/uec/MJoiKs6PZQ135kEbiygCYAzu17A/u5NxuHYLaHF/fH2SC6V5W4wS3JpGHXjKiOZZct2OW5f73MiiA3fVgy1VPXe/uZoGO1ATDoWdjuTTtjfraXsSSfe0U5yVU47YtpjzQ1mMuzUHAmp5nZwP5xiYByyWDHc7TkW5g3Npelu3Pavosze0B8FmRmJm1jS9hmS8k4Yx/8q4QTdMo6/8Q+w+Lkpu+W+nBLy6QmgQJKcABaivWnYH4CxGO1M7kfWnF1KIRIciHkGfcnS2GBTeiCvlk0nrnDMNnallQsuc/zQZU505FRhttnqeFvOd4bVDaUH+9bo06+Hgs4mUlEJD4Zb8buI+GZFQmbm7YYuE8Q0YV3PwLhskaA8Zey+NGzHBwl2Fte4XD7bM8dkfaQT3CApqE8j5sjtjowFqVUHTOVwe8iGj9LTytL8DGu4ifjxE1vOc+gIAbWUXLIr7tfiyzgt+aTGk1J8JZfjRohxxJh5V0yQCw4Q4y/YN4zkFh0DJZztc1h6cb1YCmy4cEMvyajlHpv7LXvNLFd97iWUvoiAHUPSknBotdKL3+ldjF5ER3GHREE9bzMBGypfQJQpqCxqIrrY6HPANTI0WKrQKG4QjTcXF4rbxrZ9aKiDs+YKwJO0xy2JQci5a0dz05/3OTVLYALKTKdYLTDiZ58gqKC9Zq40CBu3INtr3d7buAOAZ1sGHLOxDBj4Y9H+9jY3WliMofhrhjUW5RZ+/Ux8jRmRR5WLDs6JnTHnM+afYrVi1s1XWEWUmvsz8VHF8FOPiWM68AXFL6G8CMbqhMBFYF5kYbfOR4CX8GmKm9FktD8LnWeHkdvKjuqftDrmWN5Yc10qr7raa/i+uyos1s4W7wnI6Jo5ucgjndgU3Mk+yLFSedjwZNXnxvu7AfaCiYgU3r2zEQQgIgsNZBng2J7bxypOXWnR8MU8Lu2JsZyO1VPVcoaSW+jHLDVXWolsrdBwoOMpVQc5scZ+ghqZwzCsakuCPuPNPNfCMoJwP7aIaTMv4ZcUVm7OkceHkl3Y+MSBZDsiArlLsyotD+NIuHhrN88IxHNvynP+6qp94ZbneqHZllzBPWlawA6y5xh6mZ3S9mXtfOxAuO0x3lwFgZlmrKI5cB8JxDWJmNHYelD2ZLJtlbsexvCyXBA4AKP5MsMM4W6/0ju77rOi16u1Sq+52rPV3PT14mf9jJDVfo+rkYZecbqVcMGhDSEWx+eQIkEqdoBM0RuOccPbxtBTzNlNp8ZRkLb70yEc6sEw2hv1D81iWBEH3BSN7sN/a7RPXMX1tmcKSJJmOOcENWhw3g60Zera4ajPaXfHNsjvGaBtsBvagBpN3FSTxb2q4CxZXylf3x/NhtJ7OF0dhqPBhp0KJmiLBYXsUQadvTfnspwBysGk3pdom1JLsX64Z0RisEk8Z5Vz1giTy8d2uJBY6AVp05u78l9MOvDHgz05ESKG0GVlI4UN3NO9ePI3uT23nLzUU7mkMRlsxaglrRhNBt2uaJqBYnFF8gE5qcdVrlYqNfMkC9tpdJlbrhhkX/HED6Ns0/rQMkc3EUCh8govuwoTbNQAE4YWIxa/VmqetRaIBVV0omFrbtufraSt7DL0ks3L3IKjquR0cTx2+yoWj5jD7NBiX+8Wq9C2i1VzgWneT3jJu8Ect3e9GJyXQlJVqBfvTqrYN+9OqxYtyaR2qcwdrN/ucYFW7cpiWU7MwTExEIjRvhJYMSXurtfoKDvlx1fJ9VaL9ap5S3fCFN0F70lTOBt3foqF6qe8XFbzO2hST16usYKBXM6ksVOngCssoFWsuGeQV1qAe1V2lS0Zrtzmd3VTGptr4mvKzXoL9Tbwaw0r8Wiuu1j0ytMzkf5rmP20FrUY9TdDiQ/pPYspx47XctpPkephX6LYEuwRHQ/EoKu8XUkqWUHarSkvXkm5S1IgRmPMvpbbBCFH3ptNXC4XQ00nr/dUfjYJ+ru2yG5sDFjTKK/YlhlxAJR4gZ0xBq8OL2A92NIszcBECMwW8wCbsjsg1CcHoXNVJ6PBGWOyCFhgz1cTW+1lcNeHRNCnh1UC9zSJzD2FUK+akdhy+cgBAQ80HIlEDaMmUHceGzi2zehvO+1qRJ2zuBIcO981Ebv82eHgXMhWwvrF2HmEekxbuvQHQ4JzMoD8bIgpnfV396rR5Kl3cp0KaXyPKYhCmUEJcjgoSgQ8t4UnHxfyUhEv4VzFlx8UMm/q7Hq145eaxbYsdW2epsnS8djwzjvkYq21LlfP8gpMtJ6cNj/3cD/zcmd6h91ASwGqACXHVMXvMs2PW+KSF2BPUJUAjWF3wqN0jUpd9kJSPYdgB68jU1BvR6kbCIco3pg9xXuZOcaKoCS1Mfgn7+30o1AtKM9kLPDOPbbz+AHTc1QuU7QIT5nJEI6hh6QW9NSxnamCpBb0tGHUskdS0TYU9c2a4xtn4z3hGNx3e6NUmwzvb/TU87JAp2LqTZ7+GbeJ/p7xHIoS65Dww9u0+r/WNWGXWVS3uqzlIBxGwWR75nbPQKpg4y2aa4fJuLs3YNIda78ObHU4GsU4P0fZuq4x5BeANA/sGVRS2Ufiuq9aDjpIQ31dcx9tipW5wf5e7DSR/xWNTC7hMT3P4+o5U5W6X/+iuYsWBSbEiO+ykZB6We6IY/WgN3kOB89gn0WGckxDY56MqyD0/5od76A+mYxHQ250Rodxv5/EDdohhIipcFJAnvcRU3fgjDBMxevjikQOBvxLMdi58EnFm5IKc3JPK345rhAvPgU/EIMz/HCgsGxQ/9s6MsABQEEhDqU+aKfBwCxiXPOnmRphWGAfysAsUwL9swxUOBLYhzPHvVYfuxOpl2v9+/qSHJYSVLh8D0oTsBptcBJN+XvYjostu7UQMMBLbEqALFKvzukvxRpg/NBUBT6q1XOhZqDz6+rfkEsaZONJ35etSHXm+y04sc0ZDfyYVq9ygbB59f1xvR8HjaCe7eQN3A5i6bsPUf3ZOC6FmMRAfMztDDW7ys+YRf2jOYdk5v6v5JxjWbPVH0eM5dsY6V/HxMLE711Rn9D2YrM83+jrKRWRdCXcjtTXPf1i/OQMGPlG6p89/aOeG7VI4Ve1+t60aG2JzA8bqxOmwCUQ9W+5Z8K0xKGrdhhxyvPHMjHirb84jnQRWLENzQBfNs8axowLHvEDIvU1T7+EaAxhy+I0LO1vOkK/nsS/AgmiIRH9VT0HIq72Ca2/Zmx7vLNP4oIdwl7coCa7sCqo3/d20x3pbZ76F3OtGzAEfIWr47xtXGUX6J+b9vd2ZCPAZVlW1xwBWcTTCTR+Ubqsrj0Ks6hnZqzF4ojBZ35L9U3qEZcA2wadpGaDlSP3ReoJ6pEXAS1yV+BldjV1jXpUnLdVG1LMXFBdpx49D7FoZ3E74js5GEtLtvq7RUIN9juuyL85ztuq7zHkRElepdUT4oKtu89pUsdB1au1+o9G8oQHhv0xUZ7d3cm4JqEj/EMJkfy7uVocnwuz/T5n1BTjeazCBKUyZOmGMg5WWBbrB7JYdnMVeWVRnp9FwSrJgwHAP5gFBzhQLMF7w+mEqhdkqxr79i2wfYe8p37oEpVOB9RUvfAStVxcGZdGzdQPZ6vL8k74QL0oC0v2vQvqRzSbPGYsJj5Sv2gxEzvxATD6jMdeoN6g3uOJY0S5xWkceRpCWv15DK4hH8p/wWn1Qo2pl9DR37F9Gu5Yc87H+vQ8yPgx7/DUP3gyS1227JoJUsV8LKo/0VLDBjkabrEJH6l9SW42OUdkYtAcNzur+KXIMWJ69Z/quILbv7maD+nk9lq9K6f+TospEWoP5tRHU8USUKReqfULDGul4WCYdvvTBtax1/ACeoZ6FYKI1vuDdqfWoQ5RvMELj17z/nAusjcx7pnMOpqBrF+UeXWz4LJW+59OZP+8sWmLNmfB354+2FlyWVvxDFomEfvlpGArvyPCPhEZWJHUgr6TGGbymud4UrCVzxrAHgYRPRmrZX0iU7QIxV3ceXi7TFILqki2GjVtvJO6K+YAFmlVYMaMvtVTv5vxF5p2LAzryouAtukaNofzWxKAuipbtijrkfFm3KOaZXVDtmxRGhZkzKB6hLopU7QId1kIq0g9St2cFGxl25bND2cfox6elmx1sI2Lk3o+j0uLtv5e28CCBOPxWYDF+a7Q+FiR+qTW3+LytqaXCqbsIq63HQFZxG3pdy2c7IZy3fc1rW/PAizOOdtzDBSsO+ZBFm9HXiSwzlHLyV4t3MasplJHxD+hswhtEfQRjJenGKXJbDbZvQSVnzyKcylCr0iR0pqhbKl7KDtLGZ37qaM4nQm+BLUpyitNrAKnm9UbsUkwasRvVtpPy9GhuHkk7v58b3MiXg3jWzceCrCfdzDLbQJ+nQPLEBPgLzigGVMCfb2DMrmcF1B0WTJvdEC6skrLsH/JwWxXCfhNDixdJcBfdkDTVQJ9wEEDM78WjP3NCuVXvB22OOtCJDKZqZvVjZeCW9VoRfLDSzEyqqTYA1zBVj7HlGVc7BDwcD5btigjA2r1B7LXgLKbLVsUOgRUZiYwPWaRqlV1wQBP79sfsq6rQ1O2tRX1YW2K6wnbjiAd/Lmtwpgb7yet+IitIGKCP3ha/YUtWheG8kdtucV2iJ8QDJ8rrU6rf5wDm/6rxHgiWPqcrcoybqsq6j+6qp3haOCark0n8kOrz9sax5aZQqD/aQ5qlQDwFyzYkDH0g3C0jXC+aOHxhk8TVVM/xmENYBt3dhqF98rUX2DSX2bB5pe1DfUHtuR4djNFT+/1dodjBh2qt+fVH8omHxfeN9fCcIGOcLSZqZb6K+7PgzG6vdbfZS31p7LAPu6hQO62V47bxsv/UVmQ9uI1kCuIpOIlaUWJfs6ldg7T92M6JWV8iU9p9TMZWIdW3CK/OgOqpBfKP6sJKjI+g3W3ek0Gq4W3EE4PwsDctsD0b3IKIXJofBeD31Zvz4DkB8Ir6rdSXondye3xZ7V6h2axxJevHapUR/1OpqsO0bfJvszyu7KY9T4F/jc26Xc1hbgmM4J3S5CI6xpTZpdlakd9uVJ8MNNBYB7TBijZrGge4IqR+bOU1WpKOlK/mtOfSavMVCAhE0BUb8+p/6XtDYxxxV/k6Q+6skQo8YbsNc2LPf03sWwkuAAN9eOe+nIK8znwA/nvKaTGSE1cAE+KW9MEblqz9bIP/48USnsL++cUVkbrmCzDKvuqp/9PWicuWXKP8UpP/d9MFcNUr/bU//D6SbA5wobr/+btoh64jeIgRrhz+nk5YgFHvqN0XP03baBd9MUZi2X1P5kXc2y5xAuzt2oCVA9ZvcHihAP1Ek99xBuzCI68e3uL5tJ3Czi3mlvna2xy+/iX6hU59YPeCJ8WxT0Yhvcb3PflGKthzrmqeMCasToXvIzAZGjJbvSz3AIPwkkLFdpkqal3EWGT1b27Z8i9N6f+Q9yWbiJiirLkPptXX/buN3FmeXbHoR8hhlgM9RMZcNl+lmORibHAipVAsL85m4bxVzve46mfdPXl/hanpiIEI2YJRrh1sjXV8d7+LLkAfXFO/ZyrkG2e6z4W4msdZH1ygBUzavWgp/491uisgQfY/vMid0b9i4hIFghicGxwL2/RTHNQPu/I1cNZfyCieElOvdDB/AORIT68/mEHaeFZsLsc1sPxvjX4L8/pH/HMPLcn98dWOVIf84gjGDD2bH93PFfzm7aGBlarIvUJjxOUAVr0s7JTGfBvEY90axiTJUcM5nZ7aN4kyET894vqW6wqDlR7HAtjpK94kdQEeyH2etqYiLasqB/KmbdhmOIPaPW/LUpHIKbZB7X6PxkYoSy2XvVCd8wJd/eIcklc0d1S/EhuMJTIxi7dI7XqAPv+n7lgkENdezKZUfyCK8ayoNUXuUI2rWqmRq73zdL7J099Ka5yBM2e9mVP/dcYbpu0+vsRdvQrHm2Is7NgKkNRdZnbr1vZcHD3x/u7qxgEFE69Mqf+t7W5VMhQ44pX5dQPEBRjs0OXj5mM9VKe2TcfNhmzjqF6Mi3Z6pKsKLt5+UnE69RFQItcDk1AmEk0C7Rpn4lcfjHUovsRRrKKPZuah7XYn+vmIRattjtkPLUhCSjXk7iSra7PxKahJOcx+CA8LFu2KM1NVtjcp4Aepx5zFGZR72bloGFZhxFH8rEXQy36PYQRBoT3zbdz6E89ST3xCMgiPtsKISB8ASxiU9HfOg+yeOgdcS4zCZF4Kk9XT5qHWLTNkVEQCV4T2dT62zJli7Fln0yLDhCXV7ekRVs/2EbN0PzoPIEkM4dMVXQR0CJj6kzfk1XmQCs2l6RoEQ7sWEpI3epF3B7s+yVAyaL8qtYv1kjO6KZoAXUv1ZHxVNJPDtyrfp59Qk4/wS5LawfRMKmvc3iERSJiEpvqjdr22BHhRMHGmmQg+GsOkYlinrYI2wbGrH83+9dWCoN7iPwGN5HcmRo/dBqO48W1woWTpZJY6+d76p26716bvMBTfxDvhDbgK+CamYENtw8W1Hv1mLbE3Ciadf8lrf7QhHNHR57YfU6r98UV4pCItYsR4PKP4rpUulWRIiMRhM9r9f6LMYrpQ7YvavXHBgHlMAbtPvWXRhZ9fJcpd0giR3cxJmes4hg/VSZAdt1PWpe8DE26RG4yH6fV36YE5BZKKDwEgU/p8+Ehwbhz55DsO3Pq0/pggofpy/bT2pkSrUXe/6CFU9kwCdTslMLtyRRPlFifDPA+/Z/dbUUNRyFiB9P/Rc+YbondieTVa3LqvzIhMLrT5C6DdQqj+CYT7CKBTPIw8kP4GdEsPRq8iDjXZjgwBN6TUy/1CEvu1EMMsAG9Ko+nh1IwzzLLsOc06b2e+ikvGrJHcIKL7wRa/XE4kuG+xutvMRITC1vv1GuyPN6RV2/2JDjXxuKod+bVr2WQau4Rwlu8A0EBYrp/IE+QKYaUsTr7u4xM3Os99X5P/UZSJ6fW0mHAJk/Nhzycn7hGYFTiG+f1O7JQNsX3afXbCagdEjRAl40yvibPlUdcI6yYmytuefLqdxJ4h1keNzAVMP6pBBpsTfbAfGte/z1bDVvyISpyAX9Qfc4zTwwCcynE0Ui9ILeJVjERG3Fb2BoIW//LO1ID+PN5rky4HWJFWivhX2ArGUgtIv+B3BRDEaOfQcFX1PNzYoUn29sBc7YfiWw+mlf/yWMLpV28uAT8KU/9kQPHbpKAP+sh5t0he7EgWirqXXn1x/CRuW6m+w946AxbOC7lmz31J4ycMx6+1Dbug3pPXv2lZzUT/TFKzHge1HhKW2J12jZYnZq/9+VxjKYWat2CFfU33mCyRdyc8HiW9nvz6m+hzS0PYs++tYgImujPWP+mCNkD6+VwGWeF81mjjMXZbDrcJFYUqQ/l1T+aUZgZNEP5WF79F5zmXRyt5IMY38cdWgxyH8D4fvU/EQgKxEVXREdMo+IeITcIt/v7o9lcBQO/T700t4ewjaa9xVM/Zn8X28J0yawrL9dno9ujCBW9C0v92kQ+26I8DhxG3Lm6QGVYSEstyzNYxX+tYjeQRxO601yTlxYC78VAr24/xpXrNlwu79Ck2EugBfO16NVm+6x9AbJgyqVi+YwDLBqAeU+3hBuL02xcbeupewtMC4GZIU4OgUOtI2MNU0D296r4fasJNsJhZHlgQaaJhRaGUdM2s+UF22/FbT9zxxCP6cGqcKSWZxKYaGO0yXqZB4Wi3enPLN7naT1f6VNzCKnzRlfS543xAqu4FZLS+AA0jtT6VEEkJydB+ywBfg4yOGLgEsNhMT7oqdzGHEQ9ul4N5OkM8lZH37Np+TjvWls+Zp0+K/NSYLVRsQ/EcvHLuPh5Wt4+LktbFSzAPUaLH67Ld6IzUPvqa3EeGL/4WpoHJ0/DljeqQbVUE+Wyr+4qxY68HlqJn+kdTx7NnUg+SCxdGSZ6R8d8ch7H9H4R0qkUyfJxaVqXXYR2aXKXl5rtCgDpMBHhFQ7oWibwKx3c9JhAr3JQ20ECvtp8S67R6ckXiPx2p+pLf9dYUZabXXmNmpmla+vV9F3kdfL4MS5cLzWJIG+QqqT0MPM8MHnFeKMpxq8FbzIlw0an2mxI9zenzwwfbmrdi8dH1I6+aXyUPP9KO3pMrLuy6SY7crpKPpxZJVkUn3qWSrIYgLJ82QmT9SLYgO5TXpmc3VVpmKH9UWjP1flUCFFW9Qxnale9LS/03FLuCFVO6GwnnMezu2FK8uOQfEg8HyQhPxzAVfro9yLS4nqBniH7yYvIOhwfhJRkBBAz6RXNxtxyHYCWIfVpSF1U71OZktlzFcKZRa3Owl2z+8gzO/P8TpVq9kPrjljWC0g7+1zSWabepzLtTICEXOKeYjz2hXHfeEr2GepnwOCUiw1vMGNmXnMzYqmce9l3v+Cp/AExDFP4oqcKu/sRu62UvuSpBUu6k6B7eib5Wjg+R/QfG2sRNmIKHt72DP+RjSCtrSck2TAm+BkVYS6CqVkHavUIVK+SDUQksQuRmn2c2LGfjNMOLxvI0PEPHObk7xAtQRfZEHIQUfeYlY8KZx7MtMNt5RXGyMhuBrCPVwGvrIPnTnY3h+Fq3/4uv2HFm9vKNm8kDb+KSLOv6wvlS+OpfGqsVdZYa/kVT7taYT/pBebT/j3YgPlqY91vV7Eu1VrN2hRbkZvrIX35o7x8PAS3GP8FZWCZb5jCA3mVG4Xn+luHbnfvhOnjkfwczYoIZ9kKeWyHTzwIWfdHlhaEjz4azO+ZOXLNq9K2MJNJfV5OLWQFtLg3lQdpnHsMrQhvWi1luVye48WCvZwEVGwe2zWDdVt4lbY/eLEllH2ucUcYkN+Ime9UGbGT6PgXWoiY7aBR9nvysykA861bRxhFn1mucnYwxRWth+6AJj8/dNAX5LRXzYDniUBjJjy9MKfk5IrcvgFyRzCVl32OruAXn1K+fy78auuu+XLcxdGwHxZ1XyhV5udrpFqG3fMrqJL9JYNX7LAJrvsVtAoU+d5q0LN/8UOq8Wi6bJHSUzcLd8+m5wPNKue+NcuS7TbKxY5P1r5Alg2MgmebpQZr7vctNr/BaR41MiAXL25YvcudNSWZDoJkSfTYimaxWJaNlU5U4Itv1jHTms5vha3fiSNngL3Ar+GYmFrnpZMrwKpIynm/2c64O+TsNJnKyR899/CyTQbWZ2gkni1ZN8RsO2GSNbTnQG402TZDMMwwXppTueGWoZm31CP14zldiEzX4aBpYNSyjDr2/Q5rYHEHXQG4hJlis+PKd7LLlseUaFlBeABzVyHqss49LT8ot6vmU3Cq3JJJ0+4LaV45EBOZO13cKCY4eYkwkBZOB0bGC8bzvUtAi617OusGuLQmJnY5MOBjwdmqcW5XzjTl+Tq54+1uIJATpaL51t9Jjk7yIWGzEE9V5QRBvM7PBJkxiPZdelxZQWviSnYkEmNRi0TB5APHD/kUlsnac0DkZE2irFqvg/WoEa0RwhjNEVk0D2qb+4QA7A3Wa3PMEPsNHo9IP37uKL8iCBv7hHamlPKltIHKGy/UrBTVbaQFnRwV2I56NftJvpzlYWxPK96xEVlD5g0YhkgOfFjQgjp2CRbYVCXOkRzqOSkzwDfm1PJgHvQm9GoeJBLFUDyQU/nB5P4xGyZOXdJZAR2MkEU43jpMoQsiHsQ8nTVtdLSgFuWh+zQy/De3a9Sjc0uVdFeRCjswPc+A8KSl1oxVFYwyIA7lxBWLRycCjCGe8aPu6jaNgcmt+0WqyeWDS0lDxV/5VjXz5T7dNh/AxEuYR/NstbLVeBvZaictLHTdfpwbFOXfneTTH0ULZhww9QpD2fs0s0XjN6NGtiJSb8vp+d/hRUwszql8yWkXZGcEEXAhoewbKt7iMO2hA5jLcvaeBDR3K47aJhWZS/Ec200nDZTiBl4UJy0Qv0YDpIF4ajhStFvYlYjIOqF4QJQXE9423AGiY9xN5pqBv4fNuTwZE+yBSH9UNFzIztl3OYRA5MAhyG6f/n69aFCUd1PKhrhPLE3EmcI6oKoNvNwEkh0ll9Ps0AbnbpVPcYR7O6DMKANzxXnkDYD8Dlkuwak3ZNryK94YYl80LElYZnTJcPryxWH5Y2mH7O9ciBOv2poSbaSzFcvvKhfRUq+W9XHWz7RvEdyK21QnZkbGscSNSE7OwzbEvKnX5tUpM2FOmO/21GWQc9236X1mY2Ixx1ygYSLH3emoOm6E93N4AnTFPGn1lpy6ch5kVjezd5XpLDg/3OtMRMTI9+oEVDos7pqzwbK6BhHaOSd8mNfXJsVUR96a09cdYdVKIcPr9UcQqrGqH4SJ5yZx8hvmuQ3ANIfeh83Dk6PvjfNw8M8Y5+ymRDkDMOQirWUeSxB6chs6EfDMTxzSn5ziubjVVgnNmxdVOOPfE//4iw3iTAO/hDhEg/BRrWZsmb671Ly7h6tH3msFd5Dk2FE75XWJYVDKw5WjypI6Hx7KPh+pgmZ5GKjr6x1YnXWYtu95PW/f/OzNvOtnsF4dKcGjtZx0lf2bIM3WPb1KV2xc7MpZZLFB0ljv2nI46KLJ1QF0vQRUOkyAuW2CyGeMEPOR7ejdOc6bMapFrCLLU2JiHDQmYOGLPvusvULxTrgxRNOtrsl5s+EM1aSnWfxw2Fbk75cXAOhcYccGlrFhoRDqIBHqFxP8qjxCdq+Nl7ZZt2hlFibe2wGrRe7sjnHbem6Iusr+RnkFwWcm/rjpYcNacCOAE2iMeyLi5fbNqIDKgRktClwgVUAcKkBMxw4oV2PesBXJmxVvad+MTceDFs8mZo1weJaV/CXHV7jE+BbmMc86uR0VUCzFpQ3Ykbs4fKat/vigH8l1V+geg7L17HHdOXJsswg9U66EsmBNVNo2WrNamK/L36Vhu9yy0eUnKm3rDdHaZKtvxrOpvAw4YPNktduvqg2OUrSU1s3DnTaGleaLnMe5SThP1AAcDvl7Zv1CNThiW8yzIqi4u9nE9HodJp6lhR9+wIKSuwPzixxyrl+9M5lxETFzRS/iIOfysQ1IGtvZLExsyWF9IwLMszVA1djUTcauLu+alTD8e5xLZ9WB/GKnkPQZpBataBra3s1PZXGoV3Eu0cXOZG93gou3RaRfNBJ+sHUZawgMhZuHGUqo3tRd7sVwsaj42JytLsGEVGYZsfH7fz0jkLIW5QgzQhd82NlgSUwCcavK3NCds2x6BYvesGiQHUYtpE+XoqVJIRBFBpJDjySUIfsZwSqd7xue5TGycSMiWa/oEl4aexDTMgikR+zsJn6UY78i/bhpjtRHCAp0kq0rcTOxvel1kGr7BILMjZJGFMbdF842iUHZ0WCDJ7grprNP4EiPw/uTgneRMlREGXLkYrUBgtIMo3WLWR03wvuPDAHtGSTMfVICN3FwYiaClutzobpYTcGxqBFzJCXTiz7abcxeMEcH7qKYTgacNz8kVp9jvxBrWzbLGnWJ5le/sxduNZgfn8gUu7I5YQVxC0QXxXlaM68D/NBv2F7KQdymbYa4iXEFKljNaZnL/z5RMSKc264NisYwyuFoRPy5KpCFBMLZ3EAW5+e0ZYaqcvJJda4JzIlRFbnRsFlCGfV6lasBKXjzTVkL5kENktkzVBCYPFI9x5zKjwLYIWNlxfgGMjlEleVXldiAyDAWS1yP+tEsVjpLXX0KpboYHECGu+rPc7bMks+j9ljNhH5uc14P46VQ5TwrH7v0IoOfWNlcPDT7k2qm6+KuhaNLMBokHDmijolIfZED1xyTxvgTz043F+4/Y2qrIktLknWwQKNEXpH6Qk4vUkcUy35dhTAeioDJQeDsd2xlHVv2NuRclQa75LAjZ4dwUCZQgwbQZD3El9wM+zOmlPXvSzTPBOZUibuppKS7+AN0Kgx5j4zoGZ4R5yKaHxOFU8+5ogSoJfrzbJa4bNv2pFKQvdjs2e9nNe/CZ6g+kFPpYlD36aXJJh0dME6M3fIgxE8IG5bmMWwB5sFsoZH6YE6vWBHH2yaX+zn5Jq2z9U07ydxG5fQJuprC7Yo6aeYsxlm3hoCVcGoO3rrERkfz++T84lBi8hWRLCb18j1KqdJE6ks5fcVWZpb+iXPLwdx8fDmnrmLZn50SfUN2V8sXplc5PQTMNkqk1TUZkxSbNi6DcvraGRPsTNFncuo6KQaJFD+bU9cnk1I0W0fARN2wPdnaj5rjDsiuLYeQnWT+v5Lj6BEPL0h3tKKhWhGOP5rTNx0ML7GtfTynb94aDZkexLSiHm66goq8y0DP7lOPuBRl2Ssz1D+W049MBI4YpLE/CsUht11hKqBqJ1L3x5PxoShRNwYZr4kc9hKrwwEssszhAQRoDqG5/t7OXfvh9DATMZ47bzQ6hIC48uR22/zVON2qdddMUAgXbY4CViViJxf/uUGv9Mnpaw8DhjnZjKl/DcMktZb7KJl4T2+O0HMTOXRWh3Vk5wRfkdEzi4QwzNKxvrZMorsHW8JJsHdKmLIZ8Ha4a22/vc5CczkZADfF3IycyGdR5emoJC5LAW9UrsIWCaih9m3WFfIeBEA7YDOw3T3TeDEC1JUPLXIoqad3aViqlAUaiIKDROfSgBwW4BtTZusPZpM9jhqQSJyXaWOyy7nGjt+bszLDqCwrgRCntCBQ41pYhuZxxymVFxLUKRvFLE0n/cEWTHFLOYe9NS/359FiBq9T9fy8uLyuH/WiPDY7tgutLNheXKoX5NVCHcLIQnmPFiz0Rme78jAPJmOcTacV6p2eNmodl/+ZcPtQaAtDl1wGX82pRxgNUi/UekFypX6ErbLb2c1yB9cfOau52N/aggWVV0uRxFEDfE9bsxyXO8LqM9WxuFzGmaAzA36WWjHv2WC7oI6brNNYAkGmuJqcrU/ajlv9wxGiBnAqmls0crn89Zy+LDP4ZEn8S05dvg2lDXtqZRhXGOpVFI1VxnZ12NyfRSKK8dYIi0+cSvZIdOFKg9hC7MbSXIWmEFvDno7YWkfd8UCs1dZ59ZK8vsaA2mEGdO1mrBeRenFeXzcNt6zpDMLv3Q/ROBdgX1TXm35KU9RwB/ecKMIqDNuh32DqfMJI3A2I3N7iqYftyQHicLxVZB4xRqDdmHzugZvS0Jyx5AvNN+Hnzg7lEWfVXmzWYIkRPHxrNNzblN9kJca9HZ7jXy7p8/qRcIcknQWJ7PS/NK8ehf/VDvcw6QipbOcSYo/2L4Fuz19uMo7Yo6M1yc27JxpnYQl2RqMtjGujvM7LR1qL8nQ+0zXH23MMnKmKv1AGycpwe7u8sy8RopWUFJZCa+tPLihvYD9T16CaRYOPYVzmqlDK27zT7IItVRkkywiVZPgLW0I9Kppf6iKYzg56IiC6WNwk8CmKhqTWhyy86dbOIV3opb2LYcuXQl5jQDKTx/YuDV+R8cULw1sYM4R4hJC024EsZsbo5BCpl+d1Tool6U/Q8puSa5keGvMUCnuXgi6043e+RieV5/7kX6VHYjY4Ff/tbJ2gVmQ5esTRyK/b2IyexpWGzivzeJZ9u4ULtgGqlRIX235RNku1WmsWZUvVQUf++B45r1irFs21nrn6JCNfamz7gfsr44W6ubhdyD46WLSPkuSxAaUluaeL3yksVxsbUBSsYzEr7dAe/1OWlr4xSwkntu9Ctu+Fub4Xs30vxR0Wx/aCjyuzh3gQsKK8babclTj4cJfTj+RiIm8cZAt/tiqEF/amWGmWtgW9nr1k113jqzfm2Yjdg1oLeZArrm1WdiAW24LelFfL0rGM3kJeRbTfT+gmUX11pbzcS66q3R+EtkXNhMif9bTvxOw9obk+d3+dvlIVfSGX9+/qFmsyn4VGk6t8KVFY4PJe/ty9EfliUuhx1x2jLK21fVSwbSooL2fLWcRj9u+orZgpOk4vJCfs5FVXhZuTtGrYvwh8Cn7N9/R6tWbzjHmNcFnDd1+mvbwKF+1uZ10wr0glgpKHSSERz+vySn5v4cDF6bl92XjNRUGi9PV4Zkzcm1m297ngpAsDHFw4A4/UG/Lpg7jVeN5oTSQRv5izDi11P1oVXZF8QkVmE1fTkJH7FD0AYJT71WDB5LzGvwaPJW4ahOZNPK2HYiH12NpGPLS5pzIJvhDZkH64IdMM2WzXb8kwniL41OIBy9d2xDGA+EEGZ24A5pm1UtfIHzkMCOj7ojPm7Yu5brB30QQW5h9ieua5Y/rgMLdmVmheqMgLJMEpmI+lmiKlhWBd/oy6K9n16gpLKE3TfIFy2eZ6sS04Zr8TmZRXXDk2DMfTB5Luk5DOHthvQiYvLU+Zons9eVmtmn0reflFjymvkMch5vlCBnhlCkyu6K8yZFFtYjGsTxn01WVEjk8x619ocd23Le8dVe6sL59KViyYdpP5QKDDpmB79rVGf7TBnsd5xOkjrpuW5xTygw1Viy+ni+1OtWxGp+WvxdMhWa9R3CDJFd1Xp/Pr8vepCuu38e/C+u38u7h+B/8urcvfpFpev5N/j61L1EDmayW5GT++2uSyXHInsD5YmYDsScE5tS7Qy9gKSC6fu1i/wjyUurIr/15V9xtd0qtr8kf6rqkI7NpKh3+vq8iIr1+trnUNjRvIlYstN4CH1TnRkd6I6SK5SQz4zX6dfx8uymBk/4igjmKReaRw9ShmXOg8+i7+eUxlVVo/tlgqCZuPc09UHt+Wnr+pLQP4ZrctPEH+8jPpt5SxQ6RPZOJIvjUomr8f+aQzJeHz2zC4JLcERkC3ymBuE8DtMrg73N8ifHLJ/CnCO0sVmZmnBC1jKZ9qWHjaWZM8vVUtd+yAvz1odtvmg4zPqNZlPN9BHEdG+MxaseTLuL6z2miZvzz9rFK30zFyKdq3R+RKwr972MAC7cSTVyFvZejLaipipsmvNrsdS2uNa0Bst5nJ9To4wlZ1terXKvYj76dr/pp943VGVLgtvwhSz47VrWGvFu8otlrmfs92dXOp2MASkCsTbGzVfKadrkXmFWcvqo1VIeC7Qa66CV5DU+Vb5JbOOoEsm6sGfrFt/nLn6eyzrBOpuj+c5d6tNxJdfTQhAaIAjtJjKlV5Pd40PDyukn6h/PGxoJ4oLe0q/lY7AU9y4rxFUrRJ+LwVx0u4uI2dTHp9Mhqf/fD9U9rNsyRPJYkJP4280DZcPb0jT+PIPLODU1MyulVMplOX1/3yGW5syXvy4euybzQ6hzESjcrDdNdxUojzmTYLMUxMsIh3MZn9pXiebZ/LMcaxoNzmsthCV8wHRCV3MmhVGwlfp+Ca5HISlNgo4xWiTbbXKztt35deyV/FfJeaFn61jID0GpGfBV0rDJJeJ6nt83rDSSysG+hC0Mk+TMiS3iipI3WTSA0/hmypyA234J2pNWW2avVi+66uaVG37wzJoWd1M56mwa5Uixa5leTusopl2Ttur8bJXTZnwh6RWqJHuil5VIWV52CP9eutdWyr9PhNq74JrH8z9ssu7CewfPy2+Su531JtBLBhW31bvNpuF302mwaFO4PYnn07NobJsQ/nnoGl4SYnLn4HLUXc3ynjI31WfBJoi6ahxb1bKQRx4TYKnbhwO4VuXLiDwkZceDIFo6pSuJPC3VIwPN6TWP57ZQ+xU/dd6Q7z3bJ+3dKm+D0yjX7Pyeo+/IA1Y0x69SM/UPP0IBqU5WfN5kOU5suw5khqHa8QF0UcmAdxYLJVPnBcl+TTsdsClwOohKvqE85bQ8JVR4/+ubJ46y33azTluT9OoNI/TkBBVwh6irM4j5zDDBbLYj0u8TcNKHnlS/46jsihtZDK/MCkk/4deG0yApEaAF4R85r8xi09lRTmTiUR9e65MG7fkXPJcOzyBaKEBrE4nfYdoRVdmOtBnDzjbsrft0gOWKgfs09Gx+6UVzVTmrM18eO5/EW08CRnQu4D+LcHpsf340HOoZmfNaaz+mFm9aJ6n0qm1uvHQIbp6H0Qeut9IkGZX0nG6LEm7GTr5Yt3F7XIMPARGPCJ9hj31oUgw7hMA7mh+AQ40bi/F+1wy6A+zvnBTzAcGIrbEsWyyGm1EKAuMukns1X0Y2T1KWQ16tvf06Z0O1KVPRzjaQd4pn7H2EjdxYiQeklYOxfcE1j7m8fEd3rFljgehWbDPA5i1igtyJYdFDd88otFqV8KrJK2OICEHGb6yFpmG+oEF0BQ0pF55W2K2p/7zB5zy6bvU4EXYLyB+LPPlqCVZ54w2Uje7p9Seua+U2FK3HbZUgPJMXwJxMPAp4nPlh8iXgY1GyCRiR5jDiQm47HEM5HEpo1FbaqcieVVJdAisbiHDjzm40NOddDkKG/zci8kvz6H1fSHThQ486OMtpjBea9GcBKKk2PhhtQL10X5AwG6MMNBR4fH0h3TTFBb1upu/wJJfhCa351uGAVfVoVLU7HV2nOkDkyR69gE2x1Fkx/u7BG05F5tuGcuEO+P39vkhlwqEORm1NiHcLYlj3MKBxd1xUVnXi8k1FfFBJpfi4ZxB4xdTtZYVW+7vzscyfmZKYQL7swIGWZoAvlCXhf2I3NolsPMlv29O2y4PgyFtiWuvcloYCHQlBcJScGON5BessgGQLXgxnmLalsaGMFU12LbABtSoE0klbYuUl9heZuGMSDGVl9m+RpU9c8xjlkO8SajNDeo3B3JdbCJd6YoUOEmSz43aeSlI4YuKNx22LaR+hpBQhGOaYSaR1s73AZtJDJmg2ME6p/oeuo4+ypBgtCS/zpr5v8DkywAAL2bCXxVRdrm694sQCAoCp2wiJFGQZYEFVwwuUElUVFRpN0JEiViBAKERBQVWUJAEhRcAFcgAQ0qLeLKzSKi4MIiiShIiyICJoiNIortOv+nzrmp9Ez3N9O/mfm6O33qvk/Vu1fVW3UOgUDQRJlWz86urYtuPejS664fkjfq1tuHjLvsnDvOufKWfpPvHDTUHG/amkA709GcYE4KBEwgGAhERRsTHR0wJmiiAzEDx91cODYnr8DEBprfa4xpYVrpwX/s41hTHTTFUfQ2Go08c5KJDsZckT0qJ+m0/2rQ8WoeE5jEwECUBgYYGB8z9OacvOz83HFJQ3PG5WfnjUoan3Nzbl5BdtL4caNzxo7LSxqbM9b+zs4bmZ1UmFdQOFqkmwqzC5LycyYWJGWPz00amZM3KjsvaWKE18jcsdl52Ul7Fj6QVDgxJz/pptyJ2Ywak3sro8bkMsrn3gtq3qjet+SOKaDbSAYn3ZxdkDNqXP6dkS5J3SdBye+VdEtufk6vpLycwoL87DG9kkaOGXPqv5EwMqcgO3eMxy7C5U7ZNjJ3fC5dPMTqkXdndnJS97GMHqN2ZOjNt9Jjcnb+SE/EVU1EjL0pJz93NNbm59yemzMpaXROowzUnJhzU2FB0sScm7Pz5bJxeXeOHVc4Man7xNwx2d6g0dljk3LHo0KepzmBy0Nl5Hm/I0xONe2mGzM1ifh2n2nMvOCpF+eBmStzRhWOyc43pkdgqO/v+Lj/h8GLj/OiFx8ny61KvuV4jnHWbT7//zh88XH/FL9/J8OPgmUY4fMfBTA+zkXQE3JVEyH/VyGMj/tPYhg9y5jtxca0jmkRMNPry+4KFplVy6Ny22cVRBPe3c34vxExJjaO6TyjoHZlcJbp+XEUxN1N4LjYa4CLwvWDGZ10c9QMkCbwNbE3evAGRgc2RxUZc2sT+MbY1SwVZuawghODM02rllFFv//xeRN8dSD2Tb/DDTBYsCVq5u9/9GzS4c1A7KKg12EhCozfow6jmnRYFIxd5nf4EA5fb1WH8iYdlgVjv1OH4uRws2CxOXhAHZrq8F0w9okoE/swC1vQuknYVPwyZVlJJgtWcJpZ2+DogdgpBbUnsP4Fp5sRGx09GDulNLmHYX2bYcZf5ehRsVMOlPU0gWjoa9c7enTslD7hJBOIwayfEh09JvaezIR7TCAW+qpUR4+Nvfv22n0m0Az6HUMdvVnslOEFp5lAc+hrSx29eew9+WlxGB60wfWIcb5RQWuUo7f0lW8mo7Y5eiufeYyUH+bo8b6SMqrPMkdv7RsVhTJ9mjv6Mb4TWkC/doCjHxs7xZizPeV3THb0NrH3GAOfONEfcfTj/P5B6NdudfTjff0DZFmnaEdv6wcrFvrBzo7ezndmFPQrejj6n3w9W0IfmenoCbH3JGYVyN6ZZts1jp7o29sc+u58R2/fqP9MM2Kqo3fw9W8GfcmTjt7R93Mr6APDjt5J8fqT7J1pLv3Q0U/w7Y2HnnrI0TvHTslMqBb/YjO5laOf6POPgr6pg6Mn+fY2h/5xd0c/ydc/HvqCFEfv4vMPQs8f6Oh/btSn2Nx2paN39fvHQs8c5egnN/q/2Pw0xtFP8fVpCT14l6N3a/R/sQnPcPTujf4vNgPmO/qpvv7qbxY5eg+/v+QWL3f0nr7c1tDnveTovZQ/aR6fO9Y5em+fj+T+/oGjJ/tyj4Fe87Gjp8j/p3pyV+119D6+XNkbPuzop/n2ik/+L45+us+nFUvd6mhHP8PPk+bQz2np6H19feKhP9ra0fv5cQlCb9be0c9sjOMsE5Xk6Gf5/Y+FPqHJfDnb988x0Ped5ujn+HpGQ//sbEfv7/utJfSl6Y5+rm+v9P/tAkdP9fWPgZ51oaOn+euP9F96iaOHfP3bQH/ySkdPl59benL3XOvoA5rIDWU5+nm+XOn/1AhHP9/XPw569ihHv8Cf17HQX8xz9IF+nov/nAmOnuHzbw39QIGjZ/r+lF3D73b0C327oqBfP8PRL5JdPbWuzjI3znH0i319pP8L8x19kK+/+OQvcvRLfD7Sc9JiR7/U11P+3F7m6Jepf0utt7NMpxWOPlj6n+Dpv/UFR7+8if6bXnX0K8Snp6dnbbWjD/H1VNwfftvRr/TjLj+3fM/Rh/p+bgZ970ZH/4vykHVPdsV/6OhX+Ztj66Bql8Ee8Ropnybm04zZ5ejX+szj2RyXXOzo1/mTQpvgqksc/XpfeVUCu19z9BsajS0yiW0dfZjfX5tgn0GOnuUreZxVcoNHvDF2SmLWNnVmp77R0Uf4kTpG9I2Oni0PMBPboMyAqxz9JinTUpGaYeatcfSb/UipLKmQkj59pO95KTnibEfP8eUeK/pQR7+l0ZmUhA84+ijfmW2gv7vc0W/19ZFzvt3u6LmNzplpops5+m2+XO2ARU30HO0HRTtmasjRx/h2HQ+91/WOPtbXRxXCvBxHz/PpbaEfGe/o47TSJktPKoe5jj7e11OVw7AKR5/QuMLMNJua+Dnf11/6XPqOo0/05UqfVXWOXuDT20Bv+5mjF/p+k9zuRx399ka5xebSaEef5MuNg96qpaPf4a8Yqhyeb+/odyp/mEGtoP/ezdEnyw/sOKoEpvd19Lt8P6sSmHy+o9/tx0X8r77G0e/x+WtnrGji/ymyqyf3FdBXT3T0e2PvWVbS2bNrzGRHnxrwDZPgXtMcMC3gS5amzRc4YDqAVVWizTIHzACwslsAxK12QBGAddKfAJ5d64CZCK/L2G4CCQAvb3RAMcDwggmGcBab67c5YFbAj+fxAK12OmB2BFBJUPO5A+6DlY2o7Liy3gFz0MraEQMw6EcHlDDCn7PF5uw/HFAKYH2l7efXoAPmwsrOWq3H4+MccD+ATW8tyGe0ccADsLIytCI/284B8yJ2aOmdkeiA+YywwrV3fNnRAQ8iw24eEr6wiwMeArDCtXtff6oDHoaV75JZZllvBzzCCOsS7YtL+jpgAYCNoDaKb891wEIAm4cysP0FDliEDGtgIsBbFzrgUUZkJpzgGThhsAMeY4Q1UEVC7RAHPM6IRuEnXeeAJwCscJV1g0Y44EkAf5bNMqW3OOApAGugCrXZYx2wGMBmu2T8OMkBSwCsDG3BJ97rgKUANttlR9diB5RF7GgPUHSfA8oBwvX5JtABYNdcByyDlTFLvAg+udABywEaIzjiKQc8DavGCD5b5oBnGGENVDyeXuGACkbYeLQDyFrpgBUA/sowy4RXOeBZAGtHAkCHlx3wHIA/OWeZsa874PlI7kp4ZqUDVjLCCpe6c95wwF8j6kqr4g0OeIERjVp9+Z4DVgHY3T0qqLuLEz3qavjYYOiAPuBNB7wEYAVof09a64CXAewG35KNfMnlDngFAda1OruPeMQBrwJYI1S3bP3UAa/BykbpePbgqV0d8HrEH+0ALjrXAWtg5VtH6XK1A8IA1uetBUxwQCUy7AojGVufd0BVRIaARW85oDoCdAQYsdMBNciwaSjh3X9zwBsA1rUUTlBv8KhvIrlJ5eSAdXS3usq1IzY64C1GWNd6tZMD3gawm65XPDlgPYCNklc9OWADMqzPpeuIsx3wDoAV7tVPDngXVtZRXgHlgPci/vAqKAe8zwirlVdCOWAjgI2rapDoZg7YFBHuFVEO2MwIu4p4VZQDtgBYA1W29LreAR9EtFLdMi/HAVsjgFdIOaAWVk0qKQfUAVh1VdIMq3DAh6hrM1p2bGri9m0A1o7WAJe+44CPYGWdKDs67XPAxwDWDu2yxU2yZDusrAyd+EMtHLCDEVYr7eRv/8kBn0QM1E5+eycH7IwA2n67d3HA35Dhq1ts6rs74FNkWHUlfOtZDtgFYIVri786wwGfwcrmlbQaONgBnzcV/mOTvNrNCCtcBeCrTSL4BTL83QkZuQ7YA2B3DpWAFZMc8CWAvztRchU5YC+A9a5qsa4POmAfgM0ryTDPOGA/gJWhWuzKVxzwFYBdEGXHMC0LPlAfsSMRoNP7DmhghN2X5cTjtjvgAIB1omQs2uuArwGsDNV7ZYcdcBDAukSL99ImWfJNRLgKqEC0A/7OCBtBbSmFLR1wKBIPFQWDWzvgW0ZYGRrxVDsHfBcZcTzApEQHHI4AGnFFRwd8HwHaApza2QFHkGGnmuwYcLIDfmhqx5ImmfgjI6wd2snb9nHAUQDrRG2N2890wE+w8jMRA891wD8iWkl4t5ADfmaEFS4DZ53ngF8iI8RqxEAH/BoBdB1xzoUO+A2t7NKn+mLKZQ74HRl2Okv4ziEO+APAClc51P8qB0wNilVP5RVXYMMcMA3Azytk3OSA6QDWJZ0AzmsycWYEY+8pTe7gCX9gjAOKAKxwVVaHxjlgJoDd0lTWXVTggGJk2Ikjl7w6xQGzgk1c8sA0B8xmhHWJ1N02ywH3AVh15faF9ztgToSV1B0/3wElaGXVla+2PuyAUlg1+urRxx0wF6DRV23LHHA/gBUuGdsrHPBARIYy8aznHTCPETYTVXI995ID5gPYRUYxfybsgAdhZWMu4VFvOOAhRljhcuKG9Q54OGK5XLL4XQc8EgGk7h0bHbAAGbbE4DU41IUelXdR6HqCJuA0Y1Y64FEAOwGjVWJo5/KBxwCsSirSdl/kgMcR4E+nGeaKeQ54IqLSCQC7qx3wJKwyE9pJRpHZfZwDngLwZfCmqYmMxREZKtISRztgCSOsz1Vyvf60A5Yywuanypip7zmgDMD6wyu5PvSoy+DzzyWXDyynu412ZwEbHfA0Iw6U3aV05kVjgQOesUBLpQH+2OGACgCbBrKueVcHrECGtU66rr3QAc8CWOEqudbe5IDnYGXNVsk14ikHPB/xuUqu7q84YCUjrFby+RVfOeCvANbnKlVebu2AFyLCVXL17eSAVYywM1ylysEMB7wIYA3UiE+zHbAawI44FuDhEge8BGDtEKuRKxzwMoBlFQPwl/UOeAWtrK9UvfXRnukDr0Ys14uph/c44DVY2b1f1duqXx3wOoC1XLvsZy0dsAbALhbayevbOyCMcOsSFTcVSQ6oBLBaqb7oc6oDqmBl7TgRYJ02IR+oBrDrjsqhzgMdUBOxQ6y2XuyANxhhWXUAePcaB6wFsGdZqXvRaAe8iVZWXZVDzfMdsI4R1iWSUTrFAW8BWBliVVTqgLcjrFSLDXzIAesZYVQUqE7au9QBGwBsnSThZ65ywDsAjcLDVQ54F8AKVy22WnWSD7wHYNNHMu7/3AHvA1gZiuDubxywEaAxggd+ccCmiB1aiq8KOGAzgF2KtXgvjnHAFlhZrVRGPN7KAR8wwsZc+9lxbRywlRF2qonVNQkOqAWwrPRuamhnB9QB2Gmgl1PvnOyADwHsuU7qru3lgG0It+pque90mgM+ArAGSqu7+zrgY1g1avVmfwdsB7Ba6Zar+jwH7ACwe4R2pwlajX3gEwA7ceSSvpc7YCfCrUs04rmhDvhbZITUzbveAZ8ywqqrEVuyHLArMkI7+fyRDvgMwIZW10YLmmT75wB+MswybzTJ9t0AdoT2/tl3OuALADsHVcOcOdUBeyxQ7clYNscBXwJYGQrU5vkO2GsBAiW3b1jkgH0A1u2yvOViB+yPWK7KanSZA74CsDuXWL2tLc0H6iOsVBS0WOmAhsiSoaJgzwsOOBAB5N3K1Q74GlbWu7rGm7LGAQcB7OTUiJi1DvgGwI6Qd9/d4IC/A1jvysDNmx1wCDvsRhsTtF+0eNTvoNoU0bWRaeOAw/CxadiKjdbc6oDvAXyVZpjxnRxwBMCqFA+wZLYDfgCw4bP7aYIDfkS49bm2zbWnO+BoxFH6imP2xQ74CVZ2eROr5kUO+EeElSqS5osd8DMj7FzWRlux0wG/AFh19SXHiOYO+BXA9+BMU9DVAb9FZBwDcOQ0B/zOCD/bZpodlzngDwCbItpPD97igKlRvne1n3463QHTovx4SPjrDztgOoAVrm3z7DIHzICVtaMFwMBqBxQBWF9JeFETy2cCWOGyvOBHBxQDWMt1tzGwhQNmIdxf3orNr20cMBvAaqULiapEB9wHK9/txWZZNwfMAbDqas/u0c8BJbCylmsHTgw5oDTKTwYJf/8CB8xlhBWubx3mDHLA/cjw41Fs7r7WAQ8A+PEoNrE5DpgHYF0irX7Pd8B8ZFitJPzgXQ54EMAKl6+en+6AhwCsryRjQIkDHm4q4+xHHfAII6wMqXtKmQMWMKJR3VV/dcBCAMvqWICKKgcsArBul0vmbXTAowDWJVJ3+icOeAzhVt2OAP33OOBxAK17LQKBi//5E87gvQW1/aLabpux552fonrdcvbWC/805Zevl0QdE3txtIlZEmtatQiYOBM0LUwz09yY/64f8YHW9waMOeaJKKNv1HQ+YIW6aoZZu57jS6I+itMHcCw1pbSXRzpto8MwfYzGfXPzInPtgCKzYzJ/j9DeyuVfNFO3MxeNPSiJM/URlz7YYsmYqg+xmHJhbg4/5LLzEK8tW+kjKX0QpY+fik3+QH3UVGwyR+ljpWITvIsSawZpMZ9LrEXcHy4nSi/pAyGy7gPe2n1MnPfS5zBjf9GHOtxWtOSE3Fof23AmTWLn76EPZvRxDDdL6frohbcZF9K+hDcnV7LhXKsPUrgRGqEPTfRRCS8cJuhjEX0YwmuwGfrgQx936EMOLogWc54uo2pZwRH9BX1kwbunan08wQb5nj6K0AcQ+sATh5ld+pBBHy1whHyNs19bnDaoyCTdbPDkjfxt1IW37rZZbQF54c/ltO6hdeVsb5d1kaw7Y10P6yZYl76639VVrm5tdUGru1heYuuFtV5O60V0MS+dmWnt8VQ3Urgv3j6f68ZrmAA51KcT9VKXy8RplNYL8O4yvYDVu1a9VtUbVMbvxMOfc0tYr7edzME/9A6TG4s4vZnkLVI7vW/kZUtHrje64KlTqTZ6c73VV2/89HJP7/GIwGA8NEQv4vTOTa/XqGPG6qWZ3o/pVZjeeukFFxFZyEXUU/Au08soIrVSr5j0NkkvjmbxjojovKE3P8h9jyvBzXh5wJt6U8Mmernev+hVC2fmrnqBgrev5m+C3oDoZQfO3cnB8jd9Ifv/IQKd9pGj/DfUQjfXuqTWfTSHsO6chc7C+xnsE4N1TawbYX7nEo1JRKFIt7dE4Rm8/YquX3XTqktV3Z/qqpR8NVgbrbtObv1ak694f1Ki7iV1BanbRjzfnUugPuTnmfQ5V5eAuu/DowOZF0RiymW6m9M1HHNjGL9v0j0a11ljdDumizDdefF7mm6yiOr9RHs+ef4wc+pxeJfBu0LXRtTHL+kyCD5EY8N6Dh3v6uKGmnYLETErceyaGVy0cIcwj2d1ETclrCoXMQdG66qDCL2nr4ybRMEU0HkH5QihW3shfzcRiacI1yv2yK/TvQ7yOrPreK6TuA7dOl/rKK1TMwdknYXxOHlfkaTDrM6tOqISgYt18NQZk5zP18lRh0Qi8pCOfjrlsZJUMTfw/P3k/e5vdPjSOQvrYnR60kFJZyIdf3TS0aGGleA0HVV0KtEBhHy/SMcKPDRUhwWdC3QEwDOjVdiT+3eqXGeuzKHinI/3FrFyLFYVrYJZtTGr0guqeInQGtWxKlnpu1lfXcu7bdhxbmWt7jSDwhFHJfB3uio/nFfE32JSeSdLbnPqla6k6mkqs3DcLThuuuoklUQsxdWkNf2oaVS+qFJRUaL6Q6WGqgoVEKoVVBaoAtBmr31dW7h2a23M2oO13Wpn1Saq/ZKt8Xh2NTacf/0/c29gaiAwLWCmB8yMgCkKmJkBUxwwswJmdsDcFzDLAyb4fsBsDERvDpgt9AiahcFAbICdS//EpYVpGfnm3vtHMDDpY/8dDByGxXv/GKaDfp8Q7GxONKcE4McvUaL0f9GBmIDpZjqZ1oH20/jd0ZxsepnkwEx6BabvfLtFUP96xnQx0cEYu5/nZY9JujxvzJ1JF2Tn3Z490cRGFPHke6w9uY3/COd+pMYmPRRjAinhn0INZS3To4YX/BDKKmifXpr8WSgz4aT0qMr6DaGUcPf0zITl9hmVmFVqGw1lE3l2VY/BNJIY0p9n+/SowtqTaRyXrmdhbQuPkJgVTDemb8iYn0NR5SXnh4YXHELCdQD1oaiGsnEQvgiVJheFKus/VY95ofKSHaFw/WPw+CgUTAmvRcONoai6jA+gvMPYL/h7MxSVmfA9TMKIDKSnhP8awi1x6XUZ5RCP4Tk/FJUSbpteXjKFHm3RcpBHKKyNh08rCOE0hsSkZxWcllZY+zU6TE5F5c0oNKQqXF9mnxAKbaMu41z0uCQVsQG6dkiry3gjLatgRVoU49LC9UGk3JpmzIBQsC4jAXMHhKLC9R0Q1Y5xZ6DUkTTkXwqhOq2yPh8Ly0SQU2czvsw+IVTZRl1GLVKeTUP+PsZuQsPveEaHIPzG2C7w+Q3Gl3iElPB4tPwesUVyTAPIA4yXHxfIde/w4ymIL/FXHgoW1s5kyKoQQe0bqsuoJvQB3L5NY59E1Nd4+Mm0lHDzdEtIzErEw7uxjrCXlxzH2BSCeilMz0zHyukQUvH00/ZJj/dto7xkP8zpUZcRSK+sT8HTLXA/PFLCbWCobDuOfGqZTpS9PDTLopSUi+Dcv4oMu8k2qJFBN6ZC2JMmdxfWLsdDf6SRtkNQcwC2DwGYE/IJLyP3GXp8pITaj94/Mr4nvKKVxyMxNx79F9lnVFbBK7aRmbAZ/2FySngvzgii6vcw/i5EjwA/dsE0CnXfCgUbyv4Gw7eUUB9j6scEYz1d98l/rxCmIxAX2Se232sbwwuuY/xXytK+EHYSmc70Whcif+JAnkO7OJiWeITykqv568zfKeJxBgH5BsOuRcPX0zBqCuOnQ1hkn2i4wjYyE16Dz2PKo7cx6kWcsoWhu9KYadsRG42Ev9Gzi7I0Kl0Nxio6e9LKS46APpSGh/bDJI4s3cKQvqmMFdf+VRKnpzlAlBKznrA/MOhW28gq6I12a1PRTi4fj/+fQcOfvChlJqThgyFMmfu8KCVmeVHKTPg/ilJh7UrbyEx4C2+zuCRm7aBrLIFpQOyv8tIvIF/zF6RXrTzdPD0x61XQ5qwHD4RYQpuTcpNDQZnbpFEWCiZm7YVbmWbEXjisYTXaifGbtETV8uMzfmghapCcF/hxBLZ+iFPCd9tGXcY19CDEpcmn4/S/wbAzQzeIEEesV0NQiB8PBdUgXh5SXpIJsySeHUQ4E/m70oYXZEFcpWhMV1f89YR9In+lbVTWh+n5iGL9Lq5Zga/rGLJVhE9R5iiW7UFsoua7lrmA/BxkWv41raHsBzTM0uK1n0Z1albBB2gXPpexr9PoXyVxeprioGLdFc4VcpManB21LPD0Gpq5wayCk7CtsfG1lu7utoEJqShoCMZINI9NR2oxhHhit9w+IayzjeEF2xnSTHPwIF0DKPsTvj0ovyiqH6FTEFNelAu1saDB8IJPPJ3UwDil1ydw+4CB7+KhLxSy1/hxBOKj9smaVWQbwwty+UPFrIKLGbuHcJ0JgeSRpQq5njLdvM52qXWb3NWuYLO5Sosh0+tcHLsFd+9MJbos5kQJFAdtJY5DmFmdpZQag5FyP7EcIwkvM0VmYu/3LGhzpUN7xC2AkE6vx2TzLTjhKX7IXUuV0UsI6DKMeoGeT2vtfwOPVKDDOxCeV4C30H0Vf1uwJRwKqpGYVeUhdRnbGash++WUFxn3A+Iesk+Y5dpGZX0mRPKY9Z6uOxnSDuL7iuhsDPrE072y/jDdf8MooyX+z2jWjHgNRnacIjoZneOZbw/aJ/NosW1kJrwIQ0oOLX51GXEQPkTDGPX4kh4GHn+H8Tdy2T/o8Qme/gcxeD1EhNUg1DKGp9eoy1iYRmZusg2UVtBzcGk1zjtOK99L9J2amhIuw5pwf+ycD8shVZFoqvCbqi5aRx+1jcr6Z3lWaKWtorGVZWs9PmkWcWM3jNwCt0ERB5fKfRtR+z6QdRCKFc81aDIDm1bynKalZCnMpoIuoOc9CkEJ3SdDKMJ7d4gwih8FlnN5yW3i0Zuu2cjuCI/LlBNxxKI/PeL46xAh7CSVetJzpWb/pZJC9nlGmS8DJqBpir/+3XyVu9kRutkGNp6J6xSI4WjDbKzLmIH0eCbwE/bJNrfUNpR7KWEIWhQbyuLZSFZjb3w6K+tq/HRIq+Mquh5Cxwr+vpWNS9H8MOMW2SfJVGQbFFDwYIXNTLiYsV/ggTORX6ceXUHe4kdXeq36F+uQefNfGql+jQ0QD+JJNc38Z6p2Uaqus43C2ieZw920tRQQ8J6Yq+dpEcJZtkdK+FxvCCUePY7YJ0YdD/8BJPPJaEiPuoyzcMRZbDx6wsNr9LQ9rBQNkVjx0NOsZFf1nMKuSgrbRkq4F25bl0pe1zP3JiCuAi1/9lYYfx2CMEfTRYRX0KOCFeZjzd96MvlHFOqFaHZVMVV0JEVPIl1jGyQQT3oMLziKuB9xWhSKwUPeE1M9rRQ1JFY9fD2OosMEJO1kKJqKqae6Z4tnlV0VVWup4U3Sas2vnaj3E5Z9SXR7KdQHaQzj7yCDkec1nkaEetQoO3eSGR9j5rsQqbnEFCfCZ5F9YvcdtlFZf6XXo7C2tz+kEwA8NGnE1HsiRQ2J9Xqgh4ZIMfGwmoqpVJcUPVk1nmFLUBXATlrDgAm2kZmQEcpMuKwGxRPxaVoNSyrJ+OcaZIQJVFyNlimWVU5k5liEFVTj044IW1St2U4JVU1upNOory5NHo7iwRqcfA/M2tRInJ6IW2MbhbUfYOMX1RD2hdgfqvUknarY9PcxdksaO+Ue24DJLrqswoRtdCEcpcmbQpkJvQlHlXooyZ4nsC1TU8Lz7BOuWbZhTHeGdEljbu5LyyqYz6r/dBplRQimQ3DS+SihIm+uR9BqzcmRHttF+ILGUSScAi+STI5W1sHHPlkjnrcNnX7C9ZTglfWbIERTD3wE499CaPoZgTpMSLVHH9Bi9ZVroKGmeHOqc7/BwleFHDVW4UXDtIupgcu3aHF6jRzQUHZhDamzBj2zauRW+wyUlywAek511yrbYKojaKcSYBt9YkJ1GbvQ7TQl4v6Q/OM9sVwNeVB+Vp0Kj21orXTVVveVtxgqMyVFT4bcbhulyVdC3B9CxeRQSngHfDoh5U0RlKLP8hfnSVFjeEE2wzrRs28IZyXzozlaKlV3pZE9k6zqkqKnOcjKooWP0NTYFdD6SQt/Y8P6UuW3GkS5HwIPwy4DWfi/sv5q1IlmS7jdi5C2LoWMPLBPMuU929DpyUa5oewPGkdRrRmrIHkQrm/NQvMq41unh+vneASdC9TDGA4KGpKZMJZ82suzOhVb30eP/py+n7FPPFpqG4lZd6Dc+nOJyrWovC5VRTS8lKD9aMzFxJ6If06VQVfXaPSAGiZASoOVSJUuuPxaLOgHoZvWkIsI2SHYjMbLr0u3WWg+neRfap+oomRVYb6FIZVay3YjWZO9AZV6yGmHQW7gh55IUSMzYQWaN8B0rQi7CfsOfmzBC4RfM0D5ICl64udZtlFZfxtDvxLhQjTdyY9+AOs81VWv6CkpZhYVe0p4CT+IrRoSy2Jj8KvfaITUUO965m7vdJaKQTD2G4YzCREYhB+Osmb8BT518sONEF7A7PGILFO9MRWClrQ59omG822DwwmxekyeegyTn0TEkzBdksbStByk/7nMP9UC4TUNZY/ig1sryaL5NOorvRuK+kqYjbKNxKyB8IjRinQSTNamhuvjeI6Q/HrWG61q9fw1V5XqWWOepiZQ7a1rEoJ+Avo+poIt2Wuozpf9LCE619NQJaJyGBZTvUZkuDd/cJ1XQaC8endFeb8B4kE8KS68KQxJh0J5Bo/OgVKhSaZsB4r0MUv96UnT42GV0axs0vhaWnW3DYLSn5EBJk82zJulk61FpEw888wrskmssG3UZWz2ehTWfm6HlCYfsDyQ841tgBylYfBALHrRNTGrDUuzqr0k+2RKnWEbxqQzvQPiPghGB0mIQczosM7Rg0DRnvnjGoIIcT/qhU8Q3ht9SeDykq6wPkKetbdP5MXZRl2GDqd7RDgC662k9xFi/orKPR234aqjLk+vwQ2cJsy7cNrOjzVYsU/mrLADtbnoSQ9V3Ef4G8n0x2BWfibdHlj3I7X88lLrtZ46QCLvfw6oVlBtini+CgY32EZp8imMY5nSDqd1S1ueXchYXfjh1WZ2qVNDa5962MVQQ7Q6/u83RR1B7JJbXrIJQjRu3QZjFmXtM1qltcFr2WZe7XMNNFRq6srDb2CHEvIrzzY17Lqo4WpYflo6tT2ivba8TfBbl1pYW4m3WG3pJr5VEVdofi1Au+ma5KtsQ/ulXTC1X2oF1X5pl1Ttb1pj9dRCZQlauSTXLmXaL7W2ab+0ufJf7pd2wdR+qRVU+6VdUrU9ao3V00rxGjfQvRPSemjRTabHD8TjSgAWbu2XUl1S9LR3HoqSUgY/bacb85CbXyaJ38CDcuF2BPsNMkF7jFxXrc3gfaArWAR1u/ii7o2XomB9ZVbBNPukx2Db0C05p2Vtdj+TEh3524hu3P0q+3Rnp6cWIQSrgQZK0MYGuSXX6b6iLb7IRO5uDc7F/Qtx/wP2iZWLbUOXB9RnUnEtCuyAsBEFWmtrkTl96OWZbrNeR31MNIh6meCSSurS2LDpprONGsRrANBhq5JN0fKSmzA/mpk/DdeSxJkJXnrrtkJPUuoD2ygvOYBJTISUcBA3H0ULXeczVQpr25Dzr5KBbby6QQ3y0/aw001DNP9SwgdwFhOSIzt69K/iQGyf+PZB2zBmOnxsJt+MyutSlUjwEo8BNObir7PQg2nBFuIaOMDzAE+WUe0hNrnUUE5nJpwHoZsWl6HopayfhHNf15FnLpZPh/CMfaLKOtsoTVYRSvopj5WPejNiE5RzB8gNjNcTKWoopxvKDkEkyVPC+4n0Dv62ESmmgWaM5oWk6Imf59qGJoydSsp2zS3ZaSebVCfN6OHZYn4m2toVyAltfBtw1GaNW0codW9USdfdIrzMD5U4FTw54YfrdSvwA/6dY5/IzraNyvoQIg+IcAIy9WZJz00RgkqdvhBfktsuYcgKftyDMuWqUipIi0e1f2ym2zzQz7HuLs3nw4i6mr/DdO3oEUgUpspeCCUKpY56Bg/X4OkuqXBfTnelw0z7pEdf2+BCiQm1MRUp99F9MlG6hvkQo5RuRo8Osu44GjtBzkA77leM+QvcpyKuyD6JX5ltGPMyJq9OIz/X46r9MFqPYglK2PXY0BftKul5kYx6kcYwiHJdjoqCG0DvkrjW6FwM9SMYPqYw3Y/slTC8Hw3f9wi61eRChB6EWkZkJkQxR3ogjjmmdw2aUgqIntj/km3UZWxEJHMsM+FLGP6IQV64zeOseCoN5BQkrLMN78puvmquO1F3APNrIIT35INj0bA9OnyJcjeqXNadw4Mw0+1EWBauQLs9SNgHENS0Phb0ePa3DAxM0h3KZKQkUxwshk8/7W/r6J6G2prFaapqWjCt01grOrAi0KOwtidoMpaezUoAj8yETCqS41k8LqMXUoy5iiVhD+Ovoid6lCZfBSLFLsN8NK3LyERke3qcgy7YUlnfkyEDKOw7QMBaiZX50kNPk6JV8N/VerbRCKlhtw/9wCn/opawDfWzUGNDtRhpoEPL19IynYau4G5hNEVZZsIsXK8aTPOCmJaXvG0b3pymh5aPzIQgVv4C4aDmVJQ9QOuphIN7FN3RIDHrU7j6DVU85PCnBPQDGGwE2aOAhkmVIwx+3D6RV2wbOhDZMqq8ZBBj95ByZ0GoFQ9tQWv5k8UVIfOIrb8HM2RjGhXbRRg7WdvO+ehXQVHRT+OqSJVTyYgHq7WFM22q6dEaRU6o0USkVw1jZ5Py/WqI5oPs0p1rODeQjN9Wk1WrSK9ljF3LRG5Zjd5b04hmqqYsdytplKZ7QFAgoonCqTeimhRMczVKQtSr8+nW2GiEXgqZHzFDaxL80/FhOZOcYxSqpzY2GiE1VCnqSIJ/1eBFn7JfV3E9yFrd1p6ut446c/cnMBk8QwpfLo3zSefZ9okXFtlGeUkZbM8T4Xl8O4AhL+L0dNUhy/FkL82LpVB6E9wncFyyiskFjE1m9sy1T3JhnG2khIfh41M1+wYRjq4k+iB83D5y4vN15mnMXuxWCNjMa/DrbjaoITW6C+MiugaOjxOKQTVajjiT1sAgTOOoYvITHoyqUTnCW6catOkVKi/5vRo7EbGjGn2HIHx1ta4xmADV+HCCGpX4sCVjcSbysZqGZ8KeNCjzvEZmwi4PQjnWBRqZCY+QQWXVzJK5qPuP6rqMaTiifQ2T+7aQMkf7S0PZBTUo14sessMzzOzASiULszKEV3Zi3Rd4VYsVs0wbRUNZDybVJISfr8PYUtvAqIdpnENEZ9OVIGhzaig7EY/ehjLHaMpeR1QMYy9Hmc+1DWTQozqkpxWnhgoR721vnKb9KKHoMI2h26tw+zyQLdUSy1ZSQ1ZOsg2rGS+Eq6WqEt3qnhLugx89Y8zjWMZNJC4nqvjJc6xXZdLQlw36bgHoLq+h2zALeUcDGpkJbVg9o1UOHOc1kOD5nJh7jZRwJxLPivAPtqXJdSj9sY4hm72GzgsgWvs8fazbqYI8P6gBY0zPjtgSgnAtcTyaJmsJ/gDbkNtJu/045E0W0cnVuOwQU6wLR5LmCmgaTm2P0P10/zO+OFPFRm+QOxGldymIU0PvBr0TAWsbdiDuWKbaZ7j+z5pQy9N4FYg5A3gSdimihtVMCSFVbYZId6WMnuJulmFZZkI8ssOVqLsXNcMU+dUodE0q6i5E3SA/FmJHXpolqK5Qj4ayD1VOaMjPEMXj5zRyoLtteJ+g0EMrmYboaXmowdubNC0mpE0qyZGKmwewxvZmKBctdRkn0ghXekzDlWaSsn6ynejES1+wTNe9TDVOOajAVcPokFJiPnL9Bm5SSvyAFn5Df3TuB+U5De+HVO530LZpwxfB05i57I1yNVrJq91cQ2mInt2YLykI70w09ssb7WgMxxsxLF4VquUaiOaQKqmoJ+550Db0tYjtoRsiDWko+wUXWR5605qCaS9DvEt7sn+UUVHW2NDJjL596Xep/RMjCCPR5hCbyWy41qTh26doqAartk/WmE9toy7je570KKyNxohDzMY48gQeMlgM9ZQU5oPnATPULrHYjkPZxzxnaTXkqRnlT1p+4GIaWuDsIqiFwTb+l9XQmP8B(/figma)--&gt;&quot;&gt;&lt;/span&gt;&lt;span style=&quot;white-space:pre-wrap;&quot;&gt;Scenario&#xa;&lt;br&gt;Seorang pecinta pokemon meminta anda untuk membuat rest api dengan scenario&#xa;&lt;br&gt;dimana&#xa;&lt;br&gt;â user bisa melihat list pokemon, meng-filter dari category pokemon (water, fire,&#xa;&lt;br&gt;neutral, dll)&#xa;&lt;br&gt;â user bisa melihat detail dari pokemon yang dipilih dari list nya. (misal nya detail&#xa;&lt;br&gt;charizard)&#xa;&lt;br&gt;â User bisa memberikan review ke pokemon tersebut secara anonymous (silakan&#xa;&lt;br&gt;rekam ip dan user agent dari user tersebut)&lt;/span&gt;" style="text;whiteSpace=wrap;html=1;" vertex="1" parent="1">
          <mxGeometry x="-130" y="240" width="470" height="270" as="geometry" />
        </mxCell>
      </root>
    </mxGraphModel>
  </diagram>
</mxfile>
